<?xml version="1.0" encoding="UTF-8"?>
<svg id="Calque_2" xmlns="http://www.w3.org/2000/svg" xmlns:xlink="http://www.w3.org/1999/xlink" viewBox="0 0 255.71 255.75">
  <defs>
    <style>
      .cls-1 {
        fill: url(#Dégradé_sans_nom_2-4);
      }

      .cls-2 {
        fill: url(#Dégradé_sans_nom_2-2);
      }

      .cls-3 {
        fill: url(#Dégradé_sans_nom_2-3);
      }

      .cls-4 {
        fill: url(#Dégradé_sans_nom_2-8);
      }

      .cls-5 {
        fill: url(#Dégradé_sans_nom_2);
      }

      .cls-6 {
        fill: url(#Dégradé_sans_nom_2-6);
      }

      .cls-7 {
        fill: url(#Dégradé_sans_nom_2-5);
      }

      .cls-8 {
        fill: url(#Dégradé_sans_nom_2-7);
      }
    </style>
    <linearGradient id="Dégradé_sans_nom_2" data-name="Dégradé sans nom 2" x1="187.9" y1="288.07" x2="39.31" y2="-78.06" gradientUnits="userSpaceOnUse">
      <stop offset="0" stop-color="#fff"/>
      <stop offset="1" stop-color="#ae65ff"/>
    </linearGradient>
    <linearGradient id="Dégradé_sans_nom_2-2" data-name="Dégradé sans nom 2" x1="278.03" y1="47.69" x2="-81.97" y2="226.92" xlink:href="#Dégradé_sans_nom_2"/>
    <linearGradient id="Dégradé_sans_nom_2-3" data-name="Dégradé sans nom 2" x1="76.15" y1="70.74" x2="204.83" y2="285.21" xlink:href="#Dégradé_sans_nom_2"/>
    <linearGradient id="Dégradé_sans_nom_2-4" data-name="Dégradé sans nom 2" x1="-45.83" y1="202.36" x2="280.47" y2="59.89" xlink:href="#Dégradé_sans_nom_2"/>
    <linearGradient id="Dégradé_sans_nom_2-5" data-name="Dégradé sans nom 2" x1="-32.93" y1="15.24" x2="402.13" y2="266.47" xlink:href="#Dégradé_sans_nom_2"/>
    <linearGradient id="Dégradé_sans_nom_2-6" data-name="Dégradé sans nom 2" x1="166.8" y1="-32.8" x2="162.2" y2="241.41" xlink:href="#Dégradé_sans_nom_2"/>
    <linearGradient id="Dégradé_sans_nom_2-7" data-name="Dégradé sans nom 2" x1="-33.39" y1="2.33" x2="124.4" y2="227.52" xlink:href="#Dégradé_sans_nom_2"/>
    <linearGradient id="Dégradé_sans_nom_2-8" data-name="Dégradé sans nom 2" x1="233.57" y1="-.87" x2="-40.65" y2="435.72" xlink:href="#Dégradé_sans_nom_2"/>
  </defs>
  <g id="Calque_1-2" data-name="Calque_1">
    <g>
      <path class="cls-5" d="M67.74,35.25c17.77,26,36.23,52.9,53.99,78.9-9.08-36.33-18.17-72.76-27.28-109.08-12.8,3.58-25.06,9.07-36.2,16.31,2.06,3.05,7.34,10.75,9.49,13.87Z"/>
      <path class="cls-2" d="M28.88,192.4c28.24-19.32,56.49-38.66,84.72-58-36.35,9.1-72.73,18.19-109.08,27.28,3.6,12.81,9.05,25.08,16.33,36.23,2.61-1.79,5.42-3.71,8.03-5.5Z"/>
      <path class="cls-3" d="M186.61,218.75c-17.28-25.23-35.22-51.4-52.47-76.64,9.06,36.35,18.22,72.76,27.28,109.11,12.82-3.59,25.08-9.1,36.25-16.33-2.7-3.93-8.34-12.16-11.05-16.13Z"/>
      <path class="cls-1" d="M225.65,64.4c-27.91,19.11-55.85,38.21-83.75,57.33,36.35-9.12,72.73-18.2,109.08-27.3-3.6-12.8-9.08-25.05-16.31-36.2-2.95,2.02-6.07,4.16-9.02,6.18Z"/>
      <path class="cls-7" d="M255.7,126.53c-.08-8.88-1.14-17.74-3.06-26.4-39.45,9.84-79.82,19.97-119.27,29.83,23.15,33.81,46.3,67.65,69.48,101.45,33.22-23.73,53.51-64.07,52.85-104.88Z"/>
      <path class="cls-6" d="M100.59,4.87c9.78,39.16,19.56,78.34,29.38,117.5,33.72-23.06,67.74-46.36,101.45-69.43C202.55,12.2,148.78-8.24,100.14,3.1c0,.08.42,1.64.45,1.77Z"/>
      <path class="cls-8" d="M1.86,149.18c.35,2.16.79,4.29,1.25,6.42,39.45-9.84,79.82-19.96,119.27-29.81-23.16-33.79-46.27-67.64-69.43-101.43C14.05,51.9-6.55,102.28,1.86,149.18Z"/>
      <path class="cls-4" d="M154.89,249.76c-9.69-38.79-19.4-77.59-29.11-116.38-33.71,23.06-67.73,46.37-101.43,69.43,28.81,40.77,82.67,61.18,131.28,49.83-.19-.71-.56-2.17-.74-2.89Z"/>
    </g>
  </g>
</svg>