<?xml version="1.0" encoding="UTF-8"?>
<svg id="Calque_2" xmlns="http://www.w3.org/2000/svg" xmlns:xlink="http://www.w3.org/1999/xlink" viewBox="0 0 196.21 222.52">
  <defs>
    <style>
      .cls-1 {
        fill: url(#Dégradé_sans_nom_16-6);
      }

      .cls-2 {
        fill: url(#Dégradé_sans_nom_16-2);
      }

      .cls-3 {
        fill: url(#Dégradé_sans_nom_16-4);
      }

      .cls-4 {
        fill: url(#Dégradé_sans_nom_16-5);
      }

      .cls-5 {
        fill: url(#Dégradé_sans_nom_16);
      }

      .cls-6 {
        fill: url(#Dégradé_sans_nom_16-3);
      }
    </style>
    <linearGradient id="Dégradé_sans_nom_16" data-name="Dégradé sans nom 16" x1="47.32" y1="101.25" x2="55.71" y2="-3.13" gradientUnits="userSpaceOnUse">
      <stop offset="0" stop-color="#fff"/>
      <stop offset=".9" stop-color="#ffb801"/>
    </linearGradient>
    <linearGradient id="Dégradé_sans_nom_16-2" data-name="Dégradé sans nom 16" x1="140.64" y1="108.27" x2="149.03" y2="3.89" xlink:href="#Dégradé_sans_nom_16"/>
    <linearGradient id="Dégradé_sans_nom_16-3" data-name="Dégradé sans nom 16" x1="148.91" y1="160.08" x2="157.3" y2="55.68" xlink:href="#Dégradé_sans_nom_16"/>
    <linearGradient id="Dégradé_sans_nom_16-4" data-name="Dégradé sans nom 16" x1="140.51" y1="225.65" x2="148.9" y2="121.27" xlink:href="#Dégradé_sans_nom_16"/>
    <linearGradient id="Dégradé_sans_nom_16-5" data-name="Dégradé sans nom 16" x1="47.18" y1="218.66" x2="55.57" y2="114.26" xlink:href="#Dégradé_sans_nom_16"/>
    <linearGradient id="Dégradé_sans_nom_16-6" data-name="Dégradé sans nom 16" x1="38.91" y1="166.84" x2="47.3" y2="62.46" xlink:href="#Dégradé_sans_nom_16"/>
  </defs>
  <g id="Calque_1-2" data-name="Calque_1">
    <g>
      <path class="cls-5" d="M94.62,0v105.05c-30.33-17.46-60.69-35.04-91.01-52.53C33.83,35.13,64.43,17.41,94.62,0Z"/>
      <path class="cls-2" d="M192.72,52.61c-30.32,17.5-60.66,35.03-90.99,52.53V.08c30.15,17.39,60.84,35.13,90.99,52.53Z"/>
      <path class="cls-6" d="M196.21,58.81v105.07c-30.3-17.53-60.68-35.02-90.99-52.55,30.32-17.49,60.68-35.03,90.99-52.53Z"/>
      <path class="cls-3" d="M192.59,170c-30.23,17.44-60.76,35.08-90.99,52.53v-105.05c30.31,17.5,60.67,35.04,90.99,52.53Z"/>
      <path class="cls-4" d="M94.48,117.39v105.07c-30.14-17.43-60.86-35.12-90.99-52.55,30.33-17.49,60.67-35.01,90.99-52.53Z"/>
      <path class="cls-1" d="M90.99,111.19c-30.31,17.5-60.67,35.04-90.99,52.53V58.66c30.32,17.49,60.67,35.02,90.99,52.53Z"/>
    </g>
  </g>
</svg>