<?xml version="1.0" encoding="UTF-8"?>
<svg id="Calque_2" xmlns="http://www.w3.org/2000/svg" xmlns:xlink="http://www.w3.org/1999/xlink" viewBox="0 0 294.13 294.13">
  <defs>
    <style>
      .cls-1 {
        fill: url(#Dégradé_sans_nom_26-8);
      }

      .cls-2 {
        fill: url(#Dégradé_sans_nom_26-6);
      }

      .cls-3 {
        fill: url(#Dégradé_sans_nom_26);
      }

      .cls-4 {
        fill: url(#Dégradé_sans_nom_26-2);
      }

      .cls-5 {
        fill: url(#Dégradé_sans_nom_26-7);
      }

      .cls-6 {
        fill: url(#Dégradé_sans_nom_26-5);
      }

      .cls-7 {
        fill: url(#Dégradé_sans_nom_26-3);
      }

      .cls-8 {
        fill: url(#Dégradé_sans_nom_26-4);
      }
    </style>
    <linearGradient id="Dégradé_sans_nom_26" data-name="Dégradé sans nom 26" x1="-81.76" y1="84.51" x2="443.89" y2="146.84" gradientUnits="userSpaceOnUse">
      <stop offset="0" stop-color="#fff"/>
      <stop offset="1" stop-color="#3fa8f4"/>
    </linearGradient>
    <linearGradient id="Dégradé_sans_nom_26-2" data-name="Dégradé sans nom 26" x1="224.51" y1="123.67" x2="69.38" y2="-47.58" xlink:href="#Dégradé_sans_nom_26"/>
    <linearGradient id="Dégradé_sans_nom_26-3" data-name="Dégradé sans nom 26" x1="315.12" y1="257.76" x2="-116.23" y2="-128.49" xlink:href="#Dégradé_sans_nom_26"/>
    <linearGradient id="Dégradé_sans_nom_26-4" data-name="Dégradé sans nom 26" x1="246.1" y1="334.83" x2="-185.25" y2="-51.41" xlink:href="#Dégradé_sans_nom_26"/>
    <linearGradient id="Dégradé_sans_nom_26-5" data-name="Dégradé sans nom 26" x1="331.89" y1="239.03" x2="-99.46" y2="-147.22" xlink:href="#Dégradé_sans_nom_26"/>
    <linearGradient id="Dégradé_sans_nom_26-6" data-name="Dégradé sans nom 26" x1="-81.09" y1="78.84" x2="444.56" y2="141.17" xlink:href="#Dégradé_sans_nom_26"/>
    <linearGradient id="Dégradé_sans_nom_26-7" data-name="Dégradé sans nom 26" x1="-94.5" y1="191.95" x2="431.15" y2="254.28" xlink:href="#Dégradé_sans_nom_26"/>
    <linearGradient id="Dégradé_sans_nom_26-8" data-name="Dégradé sans nom 26" x1="260.68" y1="318.55" x2="-170.67" y2="-67.69" xlink:href="#Dégradé_sans_nom_26"/>
  </defs>
  <g id="Calque_1-2" data-name="Calque_1">
    <g>
      <polygon class="cls-3" points="129.6 139.84 50.2 139.84 50.2 134.27 50.22 131.19 50.22 109.68 50.25 106.62 50.25 85.11 50.27 82.05 50.27 60.49 50.3 60.51 53.48 63.69 55.07 65.28 56.66 66.87 58.25 68.46 59.84 70.05 64.61 74.82 66.2 76.41 67.79 78 69.38 79.59 70.97 81.18 72.56 82.77 74.15 84.36 78.92 89.13 80.51 90.72 82.09 92.31 83.68 93.9 85.28 95.49 93.22 103.44 94.81 105.03 96.4 106.62 97.99 108.21 99.58 109.8 104.35 114.57 105.94 116.16 107.53 117.75 109.12 119.34 110.71 120.93 112.3 122.52 113.89 124.11 118.66 128.88 120.25 130.47 121.84 132.06 123.43 133.65 125.02 135.24 128.2 138.42 129.6 139.84"/>
      <polygon class="cls-4" points="200.06 83.83 233.61 50.27 219.64 50.27 216.34 50.25 196.59 50.25 193.29 50.23 170.21 50.23 166.94 50.2 154.29 50.2 154.29 129.6 155.9 127.99 200.06 83.83"/>
      <polygon class="cls-7" points="165.83 155.59 170.6 160.36 172.16 161.95 173.78 163.54 175.34 165.13 176.93 166.72 213.5 203.29 215.09 204.88 216.68 206.47 243.83 233.62 243.83 233.37 243.85 230.29 243.85 205.72 243.88 202.66 243.88 178.09 243.9 175.01 243.9 154.29 164.5 154.29 165.83 155.59"/>
      <polygon class="cls-8" points="70.97 243.83 74.27 243.85 97.32 243.85 100.62 243.88 120.4 243.88 123.7 243.9 139.84 243.9 139.84 164.5 60.51 243.83 70.97 243.83"/>
      <polygon class="cls-6" points="145.52 1.54 142.13 4.91 135.33 11.71 131.93 15.08 128.54 18.48 125.14 21.85 121.77 25.25 118.37 28.64 114.98 32.01 111.58 35.41 108.18 38.81 104.79 42.18 101.39 45.58 97.99 48.95 94.62 52.35 91.22 55.74 87.83 59.11 84.43 62.51 81.03 65.88 78.58 68.34 77.64 69.28 74.24 72.68 73.47 73.45 73.88 73.88 81.11 81.11 82.94 82.91 86.55 86.53 88.36 88.36 95.58 95.59 97.42 97.39 101.03 101.01 102.84 102.84 110.06 110.06 111.89 111.87 115.51 115.48 117.31 117.31 124.54 124.54 126.37 126.35 128.18 128.15 129.98 129.98 139.02 139.02 140.85 140.82 142.65 142.63 144.46 144.46 147.06 147.06 147.06 0 145.52 1.54"/>
      <polygon class="cls-2" points="292.83 145.76 291.02 143.93 287.41 140.32 285.58 138.51 283.77 136.68 276.54 129.45 274.74 127.62 267.51 120.4 267.51 120.37 265.68 118.57 262.07 114.95 260.26 113.12 254.84 107.7 253.03 105.87 247.61 100.45 245.78 98.64 243.97 96.81 238.55 91.39 236.75 89.56 231.33 84.14 229.52 82.31 227.71 80.51 225.88 78.7 225.76 78.58 224.08 76.89 222.27 75.06 220.65 73.45 148.97 145.14 147.06 147.06 294.13 147.06 292.83 145.76"/>
      <polygon class="cls-5" points="215.04 215.02 213.21 213.21 202.37 202.37 200.57 200.54 198.76 198.73 196.93 196.93 187.89 187.89 186.09 186.06 184.26 184.26 173.42 173.42 171.61 171.59 169.8 169.78 167.97 167.97 158.94 158.94 157.13 157.11 155.33 155.3 153.49 153.5 147.06 147.06 147.06 294.13 149.01 292.15 152.41 288.78 159.2 281.99 162.6 278.61 176.16 265.05 179.56 261.68 182.96 258.28 186.35 254.89 189.75 251.51 193.15 248.12 196.54 244.75 199.91 241.35 203.31 237.95 206.71 234.58 210.1 231.18 213.5 227.79 215.55 225.76 216.9 224.41 220.29 221.02 220.65 220.66 216.85 216.85 215.04 215.02"/>
      <polygon class="cls-1" points="14.19 161.25 15.99 163.08 21.41 168.5 23.22 170.33 37.7 184.81 39.51 186.64 44.93 192.06 46.73 193.89 48.54 195.7 50.37 197.51 52.18 199.31 53.98 201.14 59.4 206.56 61.21 208.39 66.63 213.81 68.36 215.55 68.44 215.62 70.27 217.45 72.07 219.26 73.45 220.66 145.57 148.53 147.06 147.06 0 147.06 14.19 161.25"/>
    </g>
  </g>
</svg>