<?xml version="1.0" encoding="UTF-8"?>
<svg id="Calque_2" xmlns="http://www.w3.org/2000/svg" viewBox="0 0 942.23 633.79">
  <defs>
    <style>
      .cls-1 {
        fill: #fff;
      }
    </style>
  </defs>
  <g id="Calque_1-2" data-name="Calque_1">
    <polygon class="cls-1" points="546.33 .02 529.49 21.94 304.18 315.07 302.98 316.47 302.57 316.9 357.41 21.92 361.49 0 244.92 0 244.19 0 .84 0 21.71 21.92 302.46 316.83 302.55 316.93 20.93 611.87 .79 632.98 0 633.79 361.66 633.79 360.47 627.95 357.48 611.87 302.62 317.22 302.57 316.96 529.38 611.81 546.23 633.73 942.19 633.73 942.19 633.16 899.01 611.81 599.36 463.66 302.63 316.96 302.57 316.93 302.57 316.93 303.21 316.61 599.4 170.12 899.19 21.94 942.23 .66 942.23 .02 605.02 .02 546.33 .02"/>
  </g>
</svg>