<?xml version="1.0" encoding="UTF-8"?>
<svg id="Calque_2" xmlns="http://www.w3.org/2000/svg" viewBox="0 0 5867.51 1549.26">
  <defs>
    <style>
      .cls-1 {
        fill: #190046;
      }

      .cls-2 {
        fill: #af65ff;
      }
    </style>
  </defs>
  <g id="Calque_1-2" data-name="Calque_1">
    <g>
      <polygon class="cls-2" points="5143.47 19.46 5112.68 59.55 4700.61 595.65 4698.42 598.2 4697.67 598.99 4797.97 59.52 4805.42 19.43 4592.24 19.43 4590.9 19.43 4145.85 19.43 4184.01 59.52 4697.47 598.86 4697.62 599.04 4182.6 1138.43 4145.76 1177.04 4144.32 1178.53 4805.74 1178.53 4803.56 1167.85 4798.09 1138.43 4697.75 599.57 4697.67 599.1 5112.46 1138.33 5143.28 1178.42 5867.43 1178.42 5867.43 1177.38 5788.46 1138.33 5240.45 867.38 4697.78 599.1 4697.67 599.04 4697.67 599.03 4698.83 598.45 5240.53 330.55 5788.8 59.55 5867.51 20.64 5867.51 19.46 5250.79 19.46 5143.47 19.46"/>
      <g>
        <rect class="cls-1" x="872.41" y="1238.22" width="193.36" height="170.48" rx="85.24" ry="85.24"/>
        <rect class="cls-1" x="599.6" y="1238.22" width="193.36" height="170.48" rx="85.24" ry="85.24"/>
        <path class="cls-1" d="M3313.98,499.47c-27.5-36.87-63.71-65.8-108.68-86.73-44.97-20.94-99.45-31.4-163.39-31.4h-235.34l35.98-67.3c9-18.93,18.98-37.88,29.99-56.83,10.98-18.93,24.47-41.13,40.47-66.54,15.97-25.43,36.96-57.57,62.95-96.46L2808.07,0c-27.98,41.87-50.96,76.78-68.94,104.68-17.99,27.92-32.49,51.85-43.48,71.78-11.01,19.96-20.98,38.39-29.98,55.33l-76.44,143.56,124.41,179.45h328.28c33.96,0,62.2,6.98,84.7,20.94,22.48,13.97,39.2,36.4,50.21,67.29,10.99,30.92,16.5,72.29,16.5,124.13v149.54h-845.43v-237.78c0-22.91-2.5-54.06-7.5-93.46-5-39.37-10.75-81.24-17.23-125.61-6.51-44.36-13.26-84.49-20.24-120.38l-197.86,29.91c9,42.87,16.73,85.01,23.24,126.37,6.49,41.38,11.48,78.28,14.99,110.66,3.49,32.41,5.25,56.59,5.25,72.53v237.78h-176.88c-19,0-37.24-3.74-54.72-11.22-10.08-4.31-20.62-10.19-31.53-17.31,13.47-48.96,20.29-107.66,20.29-176.35v-294.6h-200.86v294.6c0,58.83-3.26,102.95-9.75,132.35-6.51,29.41-18.24,48.86-35.22,58.32-17,9.48-41.48,14.21-73.45,14.21h-121.41v-424.71h-200.86v424.71h-333.27V339.47h-200.86v148.05h-314.79v-148.05h-200.86v773.13c0,55.83-11.76,99.19-35.23,130.1-23.49,30.9-54.71,46.36-93.69,46.36-7,0-17.75-.51-32.23-1.49-14.49-1.01-29.71-2.01-45.72-3l-7.5,170.48c16,1.99,31.48,3.48,46.47,4.49,14.98.98,28.97,1.49,41.97,1.49,64.94,0,121.91-14.72,170.87-44.11,48.96-29.42,87.18-70.55,114.67-123.37,27.47-52.86,41.23-113.17,41.23-180.95v-450.12h314.79v427.69h856.4c73.95,0,134.4-12.95,181.38-38.88,7.73-4.27,15-9.09,22.06-14.16,19.03,11.97,38.9,21.95,59.64,29.86,40.47,15.47,81.17,23.18,122.17,23.18h1422.52v-323.01c0-49.84-6.52-97.7-19.49-143.56-13-45.85-33.23-87.23-60.7-124.13Z"/>
        <rect class="cls-1" x="3604.53" y="32.9" width="199.36" height="1057.27"/>
        <path class="cls-1" d="M3688.47,1440.1c-.48-.99-1.05-2.01-1.5-2.99-5.01-10.99-7.5-22.44-7.5-34.4,0-20.94,6.49-37.65,19.48-50.1,12.98-12.48,31.48-18.7,55.46-18.7,8.99,0,17.73.75,26.22,2.24,8.49,1.5,17.24,4.72,26.23,9.73l50.96-91.22c-14-9.98-30.99-17.46-50.96-22.43-20-5-39.48-7.48-58.45-7.48-34.99,0-66.97,7.71-95.94,23.18-29,15.45-52.47,36.87-70.46,64.3-17.98,27.41-26.98,58.07-26.98,91.97,0,12.37,1.39,24.32,4.07,35.89h-37.04v109.16h362.74v-109.16h-196.36Z"/>
      </g>
    </g>
  </g>
</svg>