<?xml version="1.0" encoding="UTF-8"?>
<svg id="Calque_2" xmlns="http://www.w3.org/2000/svg" viewBox="0 0 1021.45 221.31">
  <g id="Calque_1-2" data-name="Calque_1">
    <g>
      <polygon points="185.53 2.66 179.82 10.11 103.3 109.66 102.89 110.13 102.75 110.28 121.38 10.1 122.76 2.66 83.18 2.66 82.93 2.66 .29 2.66 7.37 10.1 102.72 110.25 102.74 110.29 7.11 210.45 .27 217.62 0 217.89 122.82 217.89 122.42 215.91 121.4 210.45 102.77 110.38 102.75 110.3 179.78 210.43 185.5 217.87 319.97 217.87 319.97 217.68 305.3 210.43 203.54 160.11 102.77 110.3 102.75 110.29 102.75 110.29 102.97 110.18 203.56 60.43 305.37 10.11 319.98 2.88 319.98 2.66 205.46 2.66 185.53 2.66"/>
      <path d="M414.38,5.65c-4.34-3.76-10-5.65-16.99-5.65s-12.44,1.88-16.85,5.65c-4.42,3.78-6.63,8.69-6.63,14.74s2.21,10.99,6.63,14.75c4.42,3.76,10.04,5.65,16.85,5.65s12.65-1.88,16.99-5.65c4.32-3.76,6.49-8.69,6.49-14.75s-2.17-10.96-6.49-14.74Z"/>
      <polygon points="619.78 61.46 578.34 61.46 489.38 169.67 489.38 5.24 453.46 5.24 453.46 217.45 486.9 217.45 541.82 152.98 582.21 217.45 624.47 217.45 564.6 126.24 619.78 61.46"/>
      <path d="M776.83,132.43c-8.95-4.13-21.33-6.93-37.16-8.4l-39.51-3.59c-11.97-1.1-20.17-3.08-24.59-5.93-4.42-2.84-6.63-6.29-6.63-10.34,0-6.42,3.63-11.29,10.91-14.6,7.27-3.3,17.36-4.96,30.25-4.96,12.17,0,21.87,1.34,29.16,4,7.27,2.67,12.69,5.99,16.29,9.93,3.55,3.91,5.71,7.96,6.47,12.12.01.07.09.14.16.14h36.33c-.93-10.47-5.15-19.71-12.71-27.7-7.55-7.99-17.67-14.24-30.38-18.74-12.71-4.5-27.18-6.75-43.38-6.75s-29.37,1.88-41.16,5.65c-11.8,3.76-21,9.23-27.63,16.4-6.63,7.16-9.96,16.08-9.96,26.73,0,7.35,2.03,14.29,6.08,20.81,4.05,6.52,10.87,12.04,20.44,16.54,9.57,4.5,22.65,7.49,39.23,8.95l30.67,2.77c13.99,1.28,23.52,3.2,28.58,5.78,5.07,2.58,7.6,6.34,7.6,11.3,0,7.35-3.78,12.8-11.32,16.39-7.55,3.59-18.79,5.37-33.71,5.37-10.31,0-19.47-1.19-27.48-3.59-8.02-2.37-14.47-5.82-19.34-10.32-4.85-4.47-7.84-9.62-8.96-15.45-.01-.07-.08-.13-.15-.13h-36.33c.56,11.21,4.55,21.08,12.01,29.62,7.46,8.55,18,15.16,31.64,19.84,13.62,4.69,29.74,7.04,48.34,7.04s33.06-2.07,45.03-6.2c11.97-4.13,20.9-10.06,26.8-17.77,5.89-7.72,8.84-16.81,8.84-27.29,0-8.09-1.84-15.34-5.52-21.78-3.68-6.42-9.98-11.71-18.91-15.85Z"/>
      <path d="M865.22,5.65c-4.32-3.76-9.98-5.65-16.99-5.65s-12.42,1.88-16.84,5.65c-4.43,3.78-6.64,8.69-6.64,14.74s2.21,10.99,6.64,14.75c4.42,3.76,10.04,5.65,16.84,5.65s12.67-1.88,16.99-5.65c4.32-3.76,6.49-8.69,6.49-14.75s-2.17-10.96-6.49-14.74Z"/>
      <path d="M1021.45,60.36c-2.95-.91-6.35-1.61-10.21-2.07-3.87-.45-7.65-.68-11.33-.68-10.5,0-19.71,2.02-27.63,6.05-7.92,4.05-14.59,9.65-20.02,16.81-4.02,5.3-7.39,11.29-10.09,17.96v-36.97h-35.91v155.99h35.91v-70.57c0-12.68,2.25-23.36,6.78-32.09,4.5-8.73,10.72-15.3,18.64-19.72,7.91-4.4,16.94-6.61,27.07-6.61,4.24,0,8.76.29,13.54.83,4.79.55,9.21,1.38,13.25,2.48v-31.42Z"/>
      <polygon points="829.47 217.45 830.29 217.45 866.19 217.45 866.19 60.36 829.47 60.36 829.47 217.45"/>
      <polygon points="379.03 217.45 379.43 217.45 415.35 217.45 415.75 217.45 415.75 60.36 379.03 60.36 379.03 217.45"/>
    </g>
  </g>
</svg>