<?xml version="1.0" encoding="UTF-8"?>
<svg id="Calque_2" xmlns="http://www.w3.org/2000/svg" viewBox="0 0 5429.55 1433.62">
  <defs>
    <style>
      .cls-1 {
        fill: #fff;
      }

      .cls-2 {
        fill: #af65ff;
      }
    </style>
  </defs>
  <g id="Calque_1-2" data-name="Calque_1">
    <g>
      <polygon class="cls-2" points="4759.55 18.01 4731.06 55.11 4349.75 551.19 4347.72 553.55 4347.03 554.28 4439.84 55.07 4446.74 17.98 4249.47 17.98 4248.23 17.98 3836.4 17.98 3871.71 55.07 4346.85 554.16 4346.99 554.32 3870.41 1053.46 3836.32 1089.18 3834.98 1090.56 4447.03 1090.56 4445.02 1080.68 4439.95 1053.46 4347.11 554.82 4347.03 554.38 4730.86 1053.36 4759.38 1090.46 5429.48 1090.46 5429.48 1089.5 5356.4 1053.36 4849.3 802.64 4347.13 554.38 4347.03 554.33 4347.03 554.32 4348.11 553.78 4849.37 305.87 5356.72 55.11 5429.55 19.1 5429.55 18.01 4858.87 18.01 4759.55 18.01"/>
      <g>
        <rect class="cls-1" x="807.29" y="1145.8" width="178.93" height="157.76" rx="78.88" ry="78.88"/>
        <rect class="cls-1" x="554.84" y="1145.8" width="178.93" height="157.76" rx="78.88" ry="78.88"/>
        <path class="cls-1" d="M3066.62,462.19c-25.44-34.12-58.95-60.89-100.57-80.26-41.61-19.37-92.02-29.06-151.19-29.06h-217.78l33.29-62.28c8.33-17.52,17.56-35.05,27.75-52.59,10.16-17.52,22.64-38.06,37.45-61.58,14.78-23.53,34.2-53.28,58.25-89.26L2598.48,0c-25.89,38.75-47.16,71.05-63.8,96.87-16.65,25.83-30.06,47.98-40.23,66.42-10.19,18.47-19.41,35.53-27.74,51.2l-70.74,132.84,115.12,166.06h303.77c31.43,0,57.56,6.46,78.37,19.37,20.8,12.93,36.27,33.69,46.46,62.27,10.17,28.61,15.27,66.9,15.27,114.86v138.38h-782.32v-220.03c0-21.2-2.32-50.03-6.94-86.49-4.63-36.43-9.94-75.18-15.95-116.23-6.02-41.04-12.27-78.19-18.73-111.4l-183.1,27.67c8.33,39.67,15.48,78.66,21.5,116.93,6,38.29,10.63,72.44,13.87,102.4,3.23,29.99,4.86,52.37,4.86,67.11v220.03h-163.67c-17.58,0-34.46-3.46-50.63-10.38-9.33-3.99-19.08-9.43-29.18-16.02,12.47-45.3,18.77-99.63,18.77-163.18v-272.61h-185.87v272.61c0,54.44-3.02,95.26-9.02,122.47-6.02,27.22-16.88,45.21-32.59,53.97-15.73,8.78-38.38,13.15-67.97,13.15h-112.35v-393.01h-185.87v393.01h-308.4V314.13h-185.87v137h-291.29v-137h-185.87v715.42c0,51.66-10.89,91.79-32.6,120.39-21.74,28.59-50.62,42.9-86.69,42.9-6.48,0-16.42-.48-29.82-1.38-13.41-.93-27.5-1.86-42.31-2.77l-6.94,157.76c14.81,1.84,29.13,3.22,43.01,4.15,13.87.91,26.81,1.38,38.84,1.38,60.09,0,112.81-13.62,158.12-40.82,45.3-27.23,80.67-65.28,106.11-114.16,25.42-48.92,38.15-104.72,38.15-167.45v-416.53h291.29v395.77h792.48c68.43,0,124.37-11.98,167.84-35.97,7.15-3.95,13.88-8.41,20.41-13.1,17.61,11.08,36,20.31,55.19,27.63,37.45,14.31,75.11,21.45,113.05,21.45h1316.34v-298.9c0-46.12-6.03-90.41-18.04-132.84-12.03-42.43-30.75-80.72-56.17-114.86Z"/>
        <rect class="cls-1" x="3335.49" y="30.45" width="184.48" height="978.35"/>
        <path class="cls-1" d="M3413.16,1332.61c-.45-.92-.97-1.86-1.38-2.76-4.64-10.17-6.94-20.77-6.94-31.83,0-19.37,6-34.84,18.03-46.36,12.01-11.55,29.13-17.3,51.32-17.3,8.32,0,16.4.69,24.27,2.07,7.85,1.39,15.96,4.37,24.28,9l47.16-84.41c-12.96-9.23-28.67-16.15-47.16-20.76-18.51-4.63-36.53-6.92-54.09-6.92-32.38,0-61.97,7.13-88.77,21.45-26.83,14.29-48.55,34.12-65.2,59.5-16.64,25.37-24.97,53.73-24.97,85.11,0,11.44,1.29,22.5,3.76,33.21h-34.28v101.02h335.67v-101.02h-181.7Z"/>
      </g>
    </g>
  </g>
</svg>