<?xml version="1.0" encoding="UTF-8"?>
<svg id="Calque_2" xmlns="http://www.w3.org/2000/svg" viewBox="0 0 4410.74 1164.62">
  <defs>
    <style>
      .cls-1 {
        fill: #fff;
      }
    </style>
  </defs>
  <g id="Calque_1-2" data-name="Calque_1">
    <g>
      <polygon class="cls-1" points="3866.46 14.63 3843.32 44.77 3533.56 447.76 3531.91 449.68 3531.35 450.28 3606.75 44.74 3612.35 14.6 3452.09 14.6 3451.09 14.6 3116.53 14.6 3145.22 44.74 3531.2 450.18 3531.31 450.31 3144.16 855.79 3116.47 884.81 3115.38 885.93 3612.58 885.93 3610.95 877.9 3606.83 855.79 3531.41 450.71 3531.35 450.36 3843.16 855.71 3866.33 885.85 4410.68 885.85 4410.68 885.07 4351.32 855.71 3939.37 652.03 3531.43 450.36 3531.35 450.31 3531.35 450.31 3532.22 449.87 3939.43 248.48 4351.58 44.77 4410.74 15.51 4410.74 14.63 3947.14 14.63 3866.46 14.63"/>
      <g>
        <rect class="cls-1" x="655.81" y="930.8" width="145.36" height="128.15" rx="64.08" ry="64.08"/>
        <rect class="cls-1" x="450.73" y="930.8" width="145.36" height="128.15" rx="64.08" ry="64.08"/>
        <path class="cls-1" d="M2491.2,375.47c-20.67-27.72-47.89-49.46-81.7-65.2-33.81-15.74-74.76-23.6-122.82-23.6h-176.91l27.04-50.59c6.77-14.23,14.27-28.47,22.54-42.72,8.25-14.23,18.39-30.92,30.42-50.02,12.01-19.11,27.78-43.28,47.32-72.51L2110.89,0c-21.03,31.48-38.31,57.72-51.83,78.69-13.52,20.99-24.42,38.98-32.68,53.96-8.28,15-15.77,28.86-22.53,41.6l-57.46,107.92,93.52,134.9h246.77c25.53,0,46.76,5.25,63.67,15.74,16.9,10.51,29.47,27.37,37.74,50.58,8.26,23.24,12.4,54.35,12.4,93.31v112.42h-635.53v-178.74c0-17.23-1.88-40.64-5.64-70.26-3.76-29.6-8.08-61.07-12.95-94.42-4.89-33.34-9.97-63.52-15.22-90.49l-148.74,22.48c6.77,32.23,12.58,63.9,17.47,94.99,4.88,31.11,8.63,58.84,11.27,83.18,2.62,24.36,3.94,42.54,3.94,54.52v178.74h-132.96c-14.28,0-28-2.81-41.13-8.43-7.58-3.24-15.5-7.66-23.7-13.01,10.13-36.8,15.25-80.93,15.25-132.56v-221.45h-150.99v221.45c0,44.23-2.45,77.39-7.33,99.49-4.89,22.11-13.71,36.73-26.48,43.84-12.78,7.13-31.18,10.68-55.22,10.68h-91.27v-319.26h-150.99v319.26h-250.53V255.18h-150.99v111.29h-236.63v-111.29h-150.99v581.18c0,41.97-8.84,74.57-26.49,97.8-17.66,23.22-41.13,34.85-70.43,34.85-5.26,0-13.34-.39-24.23-1.12-10.89-.76-22.34-1.51-34.37-2.25l-5.64,128.15c12.03,1.49,23.66,2.62,34.94,3.38,11.26.74,21.78,1.12,31.55,1.12,48.82,0,91.64-11.07,128.45-33.16,36.8-22.12,65.53-53.03,86.2-92.74,20.65-39.74,30.99-85.07,30.99-136.03v-338.37h236.63v321.51h643.78c55.59,0,101.03-9.73,136.35-29.22,5.81-3.21,11.27-6.83,16.58-10.65,14.31,9,29.25,16.5,44.83,22.45,30.42,11.63,61.02,17.42,91.84,17.42h1069.34v-242.81c0-37.47-4.9-73.44-14.65-107.92-9.77-34.47-24.98-65.57-45.63-93.31Z"/>
        <rect class="cls-1" x="2709.61" y="24.73" width="149.86" height="794.77"/>
        <path class="cls-1" d="M2772.71,1082.56c-.36-.74-.79-1.51-1.12-2.25-3.77-8.26-5.64-16.87-5.64-25.86,0-15.74,4.88-28.3,14.65-37.66,9.75-9.38,23.66-14.05,41.69-14.05,6.76,0,13.33.56,19.71,1.68,6.38,1.13,12.96,3.55,19.72,7.31l38.31-68.57c-10.53-7.5-23.29-13.12-38.31-16.86-15.03-3.76-29.68-5.62-43.94-5.62-26.3,0-50.34,5.79-72.12,17.42-21.8,11.61-39.44,27.72-52.97,48.34-13.52,20.61-20.28,43.65-20.28,69.14,0,9.3,1.05,18.28,3.06,26.98h-27.84v82.06h272.68v-82.06h-147.61Z"/>
      </g>
    </g>
  </g>
</svg>