<svg width="25" height="25" viewBox="0 0 25 25" fill="none" xmlns="http://www.w3.org/2000/svg">
<rect x="0.0191343" width="24" height="24.0042" rx="4.8" transform="rotate(0.0456719 0.0191343 0)" fill="#EBEBEB"/>
<path d="M10.3618 8.07855L11.201 7.09604L11.8158 6.37158L12.5595 7.09604L13.3439 7.91998L12.0198 9.57025L11.201 8.85743L10.3618 8.07855Z" fill="#0D0D0D"/>
<path d="M15.8885 8.09272L16.6663 9.99634L16.8096 10.6718L16.8096 11.8386L16.5844 12.9439L16.2978 13.7422L16.0113 14.4995L15.7042 15.0113L15.3972 15.5025L14.9673 15.9733L14.6194 16.3008L14.2305 16.5669L13.6983 16.9354L13.3094 17.14L12.8386 17.3447L12.204 17.529L11.5695 17.6518L10.2799 17.6518L9.87054 17.6108L9.13366 17.3857L8.60146 17.1196L7.98739 16.6488L7.57801 16.1985L7.37332 15.7277L7.20956 15.1341L7.20956 14.0902L7.29144 13.4761L7.43472 12.9439L7.82364 11.9204L8.6424 10.5081L9.03131 9.93965L9.58398 10.5695L9.27694 10.856L9.05178 11.1426L8.76521 11.552L8.47865 12.207L8.25349 12.7597L8.25349 13.4147L8.3763 13.6398L8.68334 14.0083L9.03131 14.3153L9.58398 14.6633L9.97289 14.868L10.3618 15.0113L10.9145 15.1545C11.3572 15.2065 11.5998 15.2009 12.0198 15.1545L12.4906 15.0931L12.9619 15.0113C13.1262 14.9832 13.204 14.9596 13.4731 14.8475L15.4995 13.517L15.7861 13.21L15.9703 12.9029L15.9703 12.6573L15.8066 12.1661L14.8855 10.4467L15.8885 8.09272Z" fill="#0D0D0D"/>
</svg>
