<svg width="25" height="25" viewBox="0 0 25 25" fill="none" xmlns="http://www.w3.org/2000/svg">
<rect x="0.019131" width="24" height="24" rx="4.8" transform="rotate(0.0456719 0.019131 0)" fill="#EBEBEB"/>
<path d="M15.5281 15.9788C15.5697 15.9685 15.6087 15.9711 15.645 15.9867C15.6814 16.0075 15.7047 16.0361 15.7151 16.0725C15.7306 16.1141 15.7306 16.1556 15.715 16.1971C15.6213 16.3737 15.5407 16.4983 15.4731 16.5709C15.4056 16.6436 15.3302 16.6669 15.2471 16.6409C15.1796 16.6201 15.1329 16.5733 15.107 16.5005C15.0811 16.433 15.0734 16.2849 15.084 16.0564C15.0945 15.8279 15.1208 15.5396 15.1626 15.1916C15.2096 14.8437 15.2827 14.3399 15.3819 13.6803C15.476 13.0207 15.5491 12.5091 15.6013 12.1456C15.6536 11.782 15.7032 11.3484 15.7504 10.8446C15.8027 10.3356 15.8238 9.93562 15.8137 9.64474C15.7986 9.02142 15.6664 8.69408 15.4171 8.66272C15.2042 8.63138 14.9002 8.81034 14.5051 9.19959C14.11 9.58884 13.668 10.2092 13.1791 11.0607C12.0608 12.992 11.0693 15.4948 10.2046 18.5691C10.1994 18.5691 10.1968 18.5717 10.1968 18.5769C10.176 18.6392 10.1578 18.6833 10.1422 18.7093C10.1318 18.7405 10.1162 18.7742 10.0953 18.8106C10.0745 18.8521 10.0511 18.8806 10.0252 18.8962C9.99917 18.917 9.97059 18.9273 9.93943 18.9273C9.92384 18.9273 9.90567 18.9221 9.8849 18.9117C9.81739 18.8908 9.77848 18.8337 9.76817 18.7402C9.76305 18.6467 9.77615 18.5064 9.80746 18.3195C9.84922 18.0598 9.91704 17.6859 10.0109 17.1977C10.1726 16.3563 10.4125 15.2086 10.7305 13.7545C11.2831 11.2254 11.7366 9.22076 12.091 7.74069C12.1535 7.47064 12.1874 7.24472 12.1928 7.06293C12.1981 6.88114 12.1878 6.76686 12.1619 6.72009C12.1412 6.66813 12.1178 6.63175 12.0919 6.61095C12.0347 6.57974 11.9386 6.58746 11.8036 6.6341C11.6737 6.68074 11.51 6.7819 11.3125 6.93757C10.9486 7.21776 10.564 7.60702 10.1584 8.10534C9.75288 8.59847 9.38887 9.11241 9.06641 9.64715C8.74913 10.1819 8.50978 10.7115 8.34834 11.236C8.1869 11.7605 8.158 12.1786 8.26164 12.4903C8.39637 12.8904 8.76499 13.0959 9.36751 13.1067C9.40906 13.1068 9.44281 13.1224 9.46876 13.1536C9.4999 13.1848 9.51545 13.2211 9.51542 13.2627C9.51539 13.3042 9.49978 13.3406 9.46859 13.3717C9.44259 13.3977 9.40882 13.4106 9.36727 13.4106C8.61932 13.3944 8.15465 13.1188 7.97328 12.5836C7.92665 12.4381 7.90341 12.2745 7.90355 12.0927C7.8985 11.9109 7.91683 11.7265 7.95853 11.5396C8.00024 11.3474 8.05233 11.1579 8.11481 10.9709C8.17729 10.784 8.25276 10.597 8.34121 10.4101C8.42966 10.2232 8.5103 10.0571 8.58313 9.91167C8.66117 9.7611 8.74439 9.61573 8.8328 9.47556C9.16049 8.91484 9.5323 8.38273 9.94823 7.87923C10.3694 7.37573 10.7618 6.98128 11.1257 6.69589C11.6246 6.31191 11.9987 6.20054 12.2479 6.36176C12.523 6.53858 12.5668 7.02167 12.3792 7.81104C12.1551 8.7614 11.8189 10.2363 11.3706 12.2357C10.9275 14.2299 10.586 15.8295 10.3461 17.0343C10.6898 15.949 11.0542 14.9338 11.4393 13.9888C11.8296 13.0386 12.2094 12.2182 12.5788 11.5277C12.9481 10.8371 13.3096 10.2453 13.6632 9.7521C14.0168 9.25894 14.3443 8.8982 14.6458 8.66989C14.9524 8.4364 15.2226 8.33273 15.4563 8.35889C15.877 8.41636 16.0974 8.84246 16.1175 9.63719C16.1225 9.93326 16.0988 10.3384 16.0465 10.8526C15.9993 11.3668 15.9496 11.8082 15.8974 12.177C15.8503 12.5405 15.7772 13.0547 15.678 13.7195C15.4847 15.0542 15.3854 15.8774 15.3799 16.1891C15.4008 16.1476 15.4242 16.1034 15.4502 16.0567C15.4658 16.0203 15.4918 15.9944 15.5281 15.9788Z" fill="#15100B" stroke="black" stroke-width="0.4"/>
</svg>
