<svg width="71" height="46" viewBox="0 0 71 46" fill="none" xmlns="http://www.w3.org/2000/svg">
<path d="M27.4151 34.8083C27.5644 34.7709 27.7044 34.7803 27.8351 34.8363C27.9658 34.9109 28.0498 35.0136 28.0871 35.1443C28.1431 35.2936 28.1431 35.4429 28.0871 35.5923C27.7511 36.2269 27.4618 36.6749 27.2191 36.9363C26.9764 37.1976 26.7058 37.2816 26.4071 37.1883C26.1644 37.1136 25.9964 36.9456 25.9031 36.6843C25.8098 36.4416 25.7818 35.9096 25.8191 35.0883C25.8564 34.2669 25.9498 33.2309 26.0991 31.9803C26.2671 30.7296 26.5284 28.9189 26.8831 26.5483C27.2191 24.1776 27.4804 22.3389 27.6671 21.0323C27.8538 19.7256 28.0311 18.1669 28.1991 16.3563C28.3858 14.5269 28.4604 13.0896 28.4231 12.0443C28.3671 9.80427 27.8911 8.62827 26.9951 8.51627C26.2298 8.40427 25.1378 9.04827 23.7191 10.4483C22.3004 11.8483 20.7138 14.0789 18.9591 17.1403C14.9458 24.0843 11.3898 33.0816 8.29111 44.1323C8.27244 44.1323 8.26311 44.1416 8.26311 44.1603C8.18845 44.3843 8.12311 44.5429 8.06711 44.6363C8.02978 44.7483 7.97378 44.8696 7.89911 45.0003C7.82444 45.1496 7.74044 45.2523 7.64711 45.3083C7.55378 45.3829 7.45111 45.4203 7.33911 45.4203C7.28311 45.4203 7.21778 45.4016 7.14311 45.3643C6.90044 45.2896 6.76044 45.0843 6.72311 44.7483C6.70444 44.4123 6.75111 43.9083 6.86311 43.2363C7.01244 42.3029 7.25511 40.9589 7.59111 39.2043C8.16978 36.1803 9.02844 32.0549 10.1671 26.8283C12.1458 17.7376 13.7698 10.5323 15.0391 5.21227C15.2631 4.2416 15.3844 3.4296 15.4031 2.77627C15.4218 2.12293 15.3844 1.71227 15.2911 1.54427C15.2164 1.3576 15.1324 1.22693 15.0391 1.15227C14.8338 1.04027 14.4884 1.06827 14.0031 1.23627C13.5364 1.40427 12.9484 1.76827 12.2391 2.32827C10.9324 3.33627 9.55111 4.73627 8.09511 6.52827C6.63911 8.3016 5.33244 10.1496 4.17511 12.0723C3.03644 13.9949 2.17778 15.8989 1.59911 17.7843C1.02044 19.6696 0.917778 21.1723 1.29111 22.2923C1.77644 23.7296 3.10178 24.4669 5.26711 24.5043C5.41644 24.5043 5.53778 24.5603 5.63111 24.6723C5.74311 24.7843 5.79911 24.9149 5.79911 25.0643C5.79911 25.2136 5.74311 25.3443 5.63111 25.4563C5.53778 25.5496 5.41644 25.5963 5.26711 25.5963C2.57911 25.5403 0.908444 24.5509 0.255111 22.6283C0.0871111 22.1056 0.00311111 21.5176 0.00311111 20.8643C-0.0155556 20.2109 0.0497778 19.5483 0.199111 18.8763C0.348444 18.1856 0.535111 17.5043 0.759111 16.8323C0.983111 16.1603 1.25378 15.4883 1.57111 14.8163C1.88844 14.1443 2.17778 13.5469 2.43911 13.0243C2.71911 12.4829 3.01778 11.9603 3.33511 11.4563C4.51111 9.44027 5.84578 7.52693 7.33911 5.71627C8.85111 3.9056 10.2604 2.48693 11.5671 1.46027C13.3591 0.078934 14.7031 -0.3224 15.5991 0.256266C16.5884 0.890933 16.7471 2.62693 16.0751 5.46427C15.2724 8.88027 14.0684 14.1816 12.4631 21.3683C10.8764 28.5363 9.65378 34.2856 8.79511 38.6163C10.0271 34.7149 11.3338 31.0656 12.7151 27.6683C14.1151 24.2523 15.4778 21.3029 16.8031 18.8203C18.1284 16.3376 19.4258 14.2096 20.6951 12.4363C21.9644 10.6629 23.1404 9.3656 24.2231 8.54427C25.3244 7.70427 26.2951 7.33093 27.1351 7.42427C28.6471 7.6296 29.4404 9.16027 29.5151 12.0163C29.5338 13.0803 29.4498 14.5363 29.2631 16.3843C29.0951 18.2323 28.9178 19.8189 28.7311 21.1443C28.5631 22.4509 28.3018 24.2989 27.9471 26.6883C27.2564 31.4856 26.9018 34.4443 26.8831 35.5643C26.9578 35.4149 27.0418 35.2563 27.1351 35.0883C27.1911 34.9576 27.2844 34.8643 27.4151 34.8083Z" fill="currentColor"/>
<path d="M42.7631 21.8723C42.9124 21.8163 43.0524 21.8256 43.183 21.9003C43.3137 21.9563 43.3977 22.0589 43.4351 22.2083C43.4911 22.3389 43.4911 22.4696 43.4351 22.6003C41.4377 26.7256 39.655 28.7883 38.087 28.7883C37.9937 28.7883 37.891 28.7789 37.779 28.7603C36.5284 28.5176 35.7537 26.8376 35.455 23.7203C34.5404 24.9523 33.7284 25.9603 33.0191 26.7443C32.3844 27.4163 31.843 27.6496 31.395 27.4443C30.947 27.2763 30.7324 26.7909 30.751 25.9883C30.751 25.3163 30.9004 24.5136 31.199 23.5803C31.4977 22.6469 31.9364 21.7416 32.515 20.8643C33.0937 19.9869 33.719 19.4363 34.391 19.2123C35.3804 18.8576 36.295 19.1843 37.135 20.1923C37.2284 20.3043 37.2657 20.4349 37.247 20.5843C37.247 20.7336 37.191 20.8549 37.079 20.9483C36.967 21.0416 36.8364 21.0883 36.687 21.0883C36.5377 21.0696 36.4164 21.0043 36.323 20.8923C35.6697 20.1083 35.007 19.9589 34.335 20.4443C33.5697 20.9856 32.9257 21.9656 32.403 23.3843C31.899 24.7843 31.703 25.7829 31.815 26.3803C31.927 26.2869 32.0577 26.1656 32.2071 26.0163C32.9537 25.2136 33.8684 24.0656 34.951 22.5723C35.1937 22.2363 35.3617 22.0029 35.455 21.8723C35.6044 21.6856 35.8004 21.6296 36.043 21.7043C36.2857 21.7603 36.4164 21.9189 36.435 22.1803C36.4724 23.0949 36.5471 23.9069 36.659 24.6163C36.771 25.3256 36.883 25.8669 36.995 26.2403C37.107 26.5949 37.2377 26.8936 37.3871 27.1363C37.5364 27.3789 37.6484 27.5376 37.723 27.6123C37.8164 27.6683 37.9097 27.6963 38.003 27.6963C38.2644 27.7523 38.591 27.6309 38.983 27.3323C39.3937 27.0149 39.907 26.4176 40.523 25.5403C41.1577 24.6443 41.8017 23.5149 42.455 22.1523C42.5297 22.0029 42.6324 21.9096 42.7631 21.8723Z" fill="currentColor"/>
<path d="M53.9891 4.73627C54.4744 5.2216 54.2317 6.93893 53.2611 9.88827C53.1864 10.1123 53.0837 10.4203 52.9531 10.8123C52.5424 12.0629 52.2064 13.0616 51.9451 13.8083C51.6837 14.5549 51.2731 15.6003 50.7131 16.9443C50.1531 18.2883 49.5464 19.5763 48.8931 20.8083C48.3517 23.3843 47.8384 26.1283 47.3531 29.0403C46.5131 34.0243 46.0651 37.4029 46.0091 39.1763C46.1584 39.1203 46.3077 39.1203 46.4571 39.1763C46.5877 39.2509 46.6717 39.3536 46.7091 39.4843C46.7651 39.6336 46.7651 39.7736 46.7091 39.9043C46.3731 40.6136 46.0371 40.9683 45.7011 40.9683C45.6264 40.9683 45.5517 40.9589 45.4771 40.9403C45.2717 40.8656 45.1224 40.7256 45.0291 40.5203C44.9544 40.3336 44.9171 39.9229 44.9171 39.2883C44.9357 38.6723 45.0197 37.7576 45.1691 36.5443C45.3931 34.6029 45.7664 32.0456 46.2891 28.8723C46.5877 27.1363 46.8957 25.4469 47.2131 23.8043C46.6344 24.7376 46.0184 25.6709 45.3651 26.6043C44.1331 28.3963 43.0597 29.0403 42.1451 28.5363C41.5477 28.1069 41.2584 27.3509 41.2771 26.2683C41.2957 25.1669 41.5664 24.0563 42.0891 22.9363C42.7051 21.6296 43.4331 20.6683 44.2731 20.0523C45.1131 19.4363 45.8597 19.2309 46.5131 19.4363C47.1664 19.6229 47.5397 20.1083 47.6331 20.8923C47.7264 20.7429 47.8104 20.5936 47.8851 20.4443C48.8744 15.7589 49.8637 11.9976 50.8531 9.16027C51.8611 6.30427 52.6824 4.7736 53.3171 4.56827C53.5784 4.47493 53.8024 4.53093 53.9891 4.73627ZM44.4971 25.9883C45.3744 24.7189 46.1771 23.4496 46.9051 22.1803C46.6251 22.0869 46.5131 21.9003 46.5691 21.6203C46.6437 20.9296 46.5224 20.5376 46.2051 20.4443C46.1677 20.4443 46.1117 20.4443 46.0371 20.4443C45.6451 20.4443 45.1597 20.7056 44.5811 21.2283C44.0211 21.7323 43.5171 22.4603 43.0691 23.4123C42.7704 24.0283 42.5651 24.6629 42.4531 25.3163C42.3597 25.9509 42.3411 26.4736 42.3971 26.8843C42.4531 27.2763 42.5557 27.5096 42.7051 27.5843C42.7611 27.6216 42.8451 27.6216 42.9571 27.5843C43.0877 27.5283 43.2931 27.3696 43.5731 27.1083C43.8531 26.8283 44.1611 26.4549 44.4971 25.9883ZM52.2251 9.55227C52.5984 8.4136 52.8691 7.44293 53.0371 6.64027C52.1224 8.56293 51.1424 11.5589 50.0971 15.6283C50.6197 14.3589 51.2264 12.6509 51.9171 10.5043C52.0477 10.0936 52.1504 9.77627 52.2251 9.55227Z" fill="currentColor"/>
<path d="M58.5944 21.6763C58.7438 21.6389 58.8838 21.6576 59.0144 21.7323C59.1451 21.8069 59.2198 21.9189 59.2384 22.0683C59.2758 22.2176 59.2571 22.3576 59.1824 22.4883C58.6598 23.3096 58.0251 24.1683 57.2784 25.0643C56.5504 25.9416 55.7198 26.7349 54.7864 27.4443C53.8718 28.1536 53.0971 28.5083 52.4624 28.5083C52.2384 28.5083 52.0424 28.4709 51.8744 28.3963C50.6238 27.8549 50.4931 25.6616 51.4824 21.8163C51.5198 21.6669 51.6038 21.5549 51.7344 21.4803C51.8651 21.4056 51.9958 21.3869 52.1264 21.4243C52.2758 21.4616 52.3878 21.5456 52.4624 21.6763C52.5371 21.8069 52.5558 21.9376 52.5184 22.0683C52.2944 22.9643 52.1264 23.7576 52.0144 24.4483C51.9211 25.1203 51.8744 25.6336 51.8744 25.9883C51.8931 26.3429 51.9304 26.6416 51.9864 26.8843C52.0611 27.1083 52.1171 27.2483 52.1544 27.3043C52.2104 27.3416 52.2571 27.3696 52.2944 27.3883C52.7798 27.5936 53.6571 27.1083 54.9264 25.9323C56.2144 24.7563 57.3251 23.4123 58.2584 21.9003C58.3518 21.7883 58.4638 21.7136 58.5944 21.6763ZM52.4064 19.4923C51.8651 19.4549 51.6971 19.2309 51.9024 18.8203C52.0891 18.4843 52.3318 18.2603 52.6304 18.1483C53.0971 17.9989 53.3771 18.1203 53.4704 18.5123C53.5638 18.8856 53.4238 19.1656 53.0504 19.3523C52.8638 19.4456 52.6491 19.4923 52.4064 19.4923Z" fill="currentColor"/>
<path d="M69.4363 21.7603C69.5857 21.7043 69.7257 21.7136 69.8563 21.7883C69.987 21.8443 70.0803 21.9469 70.1363 22.0963C70.1923 22.2269 70.183 22.3576 70.1083 22.4883C69.6043 23.5709 69.035 24.6816 68.4003 25.8203C67.7657 26.9589 67.0657 28.1069 66.3003 29.2643C65.5537 30.4403 64.807 31.3923 64.0603 32.1203C63.3137 32.8669 62.679 33.2403 62.1563 33.2403C62.0257 33.2403 61.9043 33.2123 61.7923 33.1563C61.027 32.8576 60.7843 31.7003 61.0643 29.6843C61.3257 27.7989 62.0163 25.1296 63.1363 21.6763C63.1177 21.6763 63.099 21.6856 63.0803 21.7043C63.0803 21.7043 63.071 21.7043 63.0523 21.7043C62.6417 21.9843 62.2963 22.1989 62.0163 22.3483C61.755 22.4976 61.391 22.6656 60.9243 22.8523C60.4763 23.0389 60.047 23.1229 59.6363 23.1043C59.2257 23.0856 58.843 22.9549 58.4883 22.7123C57.779 22.2083 57.415 21.5083 57.3963 20.6123C57.3777 19.7163 57.7137 18.7363 58.4043 17.6723C58.8337 17.0003 59.347 16.4123 59.9443 15.9083C60.5603 15.4043 61.083 15.2923 61.5123 15.5723C61.7737 15.7216 61.923 15.9643 61.9603 16.3003C62.0163 16.6363 61.8577 17.2896 61.4843 18.2603C61.111 19.2123 60.4857 20.4629 59.6083 22.0123C60.187 22.0869 61.139 21.6856 62.4643 20.8083C62.707 20.6403 62.8843 20.5283 62.9963 20.4723C63.127 20.3976 63.267 20.3229 63.4163 20.2483C63.5843 20.1736 63.7243 20.1456 63.8363 20.1643C63.9483 20.1829 64.0603 20.2296 64.1723 20.3043C64.4523 20.5283 64.499 20.9203 64.3123 21.4803C62.4457 27.2669 61.7083 30.7763 62.1003 32.0083C62.1377 32.0829 62.1657 32.1389 62.1843 32.1763C62.3337 32.1949 62.5577 32.0736 62.8563 31.8123C63.1737 31.5509 63.5563 31.1403 64.0043 30.5803C64.471 30.0203 64.9657 29.3483 65.4883 28.5643C66.0297 27.7803 66.6177 26.8189 67.2523 25.6803C67.9057 24.5416 68.531 23.3283 69.1283 22.0403C69.203 21.8909 69.3057 21.7976 69.4363 21.7603ZM58.5723 19.8563C58.4043 20.5096 58.4417 21.0323 58.6843 21.4243C60.047 19.0536 60.775 17.4483 60.8683 16.6083C60.6443 16.7389 60.383 16.9536 60.0843 17.2523C59.8043 17.5509 59.5057 17.9429 59.1883 18.4283C58.8897 18.8949 58.6843 19.3709 58.5723 19.8563Z" fill="currentColor"/>
</svg>
