<svg width="74" height="47" viewBox="0 0 74 47" fill="none" xmlns="http://www.w3.org/2000/svg">
<path d="M71.7619 1.11354C72.0607 0.943265 73.1666 0.223661 73.4205 0.25068C73.5871 0.474989 73.29 0.953931 73.1172 1.12715C72.665 1.71056 71.776 2.09954 71.1108 2.40897C70.5546 2.70552 69.9961 2.99766 69.435 3.28531C68.8682 3.56665 68.0159 3.98377 67.4701 4.26784C67.0454 4.48884 66.4268 4.82595 65.9565 5.10848C64.7829 5.65349 65.1494 5.87388 64.8761 5.76246C64.8536 5.6799 64.855 5.63119 64.8796 5.54978C65.1609 4.63276 65.6316 4.29089 66.4008 3.84134C66.5793 3.73437 66.9348 3.56499 67.4106 3.33181C67.945 3.05715 68.9546 2.5237 69.2543 2.36454C69.3433 2.28136 71.4308 1.28381 71.7619 1.11354Z" fill="#15100B" fill-opacity="0.976471"/>
<path d="M49.8041 31.2438C50.1743 31.4021 50.8869 31.9189 51.2082 32.1776C51.4151 32.304 51.4786 32.3883 51.7586 32.5829C51.6525 32.7803 51.6068 32.8392 51.6068 32.854C51.3723 33.2564 51.0338 34.0837 50.6398 34.294C50.4454 34.398 50.1646 34.0762 50.0306 33.9427C49.6374 33.665 48.8762 33.0757 48.4897 32.8597C48.4244 32.8429 48.2807 32.7909 48.2464 32.8231C47.706 33.3335 47.1496 34.8858 46.8055 34.9534C46.5805 34.8355 46.418 34.7388 46.2515 34.6257L45.9491 34.4593C45.5411 34.2299 45.2744 34.075 44.9694 33.8502C44.8503 33.7475 44.7516 33.683 44.5442 33.5589C44.3604 33.4632 44.2741 33.4085 44.1798 33.3454C44.1774 33.1031 44.2535 32.9788 44.3689 32.7429C44.5497 32.4004 44.6295 32.292 44.8277 31.9729C45.2139 31.3515 45.3758 31.5966 45.8821 31.9363C46.286 32.2073 46.4827 32.3238 46.8601 32.5393C46.8659 32.5432 46.8716 32.5472 46.8769 32.5516C46.9852 32.6145 47.3512 32.8121 47.5292 32.9038C47.7463 32.7652 47.7417 32.7127 48.0899 32.5494C48.3764 32.2633 48.5814 31.5656 48.7903 31.2046C49.0904 30.6872 49.4616 31.0133 49.8041 31.2438Z" fill="#15100B" fill-opacity="0.976471"/>
<path d="M68.4257 9.96045C68.7439 10.1712 69.0511 10.335 69.3883 10.5657C70.8389 11.3514 70.8393 11.3288 69.9997 12.7898C69.9596 12.8594 69.9038 12.926 69.8543 12.9905C69.7583 13.1155 69.7563 13.1135 69.7233 13.1556C69.3658 13.2443 69.0635 12.9451 68.7774 12.7501C68.3402 12.4519 67.9139 12.168 67.4569 11.9C67.5697 11.3513 68.0528 10.3695 68.4257 9.96045Z" fill="#15100B" fill-opacity="0.976471"/>
<path d="M62.4843 23.534C62.2858 23.8057 61.9372 24.2162 61.8085 24.346C61.3065 24.8216 60.9962 25.1076 60.448 25.6119C60.2741 25.772 60.0573 25.9171 59.9784 25.9971L59.9076 26.0559C59.5417 26.3596 59.2103 26.6348 58.8201 26.919C58.5265 27.133 58.1061 27.3675 57.685 27.6422L57.4615 27.7447C57.1539 27.8912 57.1664 27.8653 56.8631 27.9983C56.7463 28.0496 56.6082 28.111 56.4397 28.1915C56.2224 28.2955 55.8687 28.3673 55.7629 28.3975C54.5389 28.7473 53.0812 28.5457 52.5073 27.2445C52.4108 27.0264 52.3196 26.7934 52.2492 26.3195C52.2215 26.133 52.2244 25.9039 52.2028 25.6367C52.2028 25.1379 52.2504 24.6373 52.3196 24.209L52.328 24.1698C52.4024 23.8253 52.5542 23.3197 52.655 22.9616C52.7767 22.5293 53.0257 21.7803 53.3241 21.4497L53.3981 21.4323C53.544 21.74 53.1518 22.7146 53.0605 23.1315C52.9585 23.5978 52.8591 24.0733 52.8608 24.591C52.8883 25.0358 52.9353 25.2175 52.9821 25.4284C53.0466 25.643 53.1795 25.8926 53.2739 26.0737C53.4452 26.367 53.8905 26.57 54.2524 26.6558C54.4576 26.7044 54.6685 26.7459 54.8708 26.7656C56.3002 26.9047 58.3313 25.6426 59.4984 24.8625C59.9057 24.5903 60.4338 24.1121 60.8278 23.8057L60.9962 23.6611C61.1765 23.4845 61.315 23.3705 61.5124 23.1833C61.7097 22.9961 61.7339 22.9457 61.9469 22.737C62.4522 22.242 62.5378 22.1635 62.7708 21.6637C63.1554 20.6248 62.0236 17.3823 61.6185 15.6646L61.6066 15.6119C61.5189 15.2902 60.9376 13.4671 60.9741 13.311C61.1369 12.8151 61.2392 12.0771 61.7274 11.5896L61.7927 11.6899C61.8178 11.7603 61.8574 11.8835 61.8879 11.9464C62.0241 12.465 62.255 13.0539 62.4547 13.5568C62.7275 14.244 62.7776 14.4388 62.9024 14.8437C62.8993 14.879 63.0775 15.424 63.1013 15.5173C63.2668 16.1659 63.3419 16.5973 63.4654 17.317C63.5117 17.4835 63.7298 18.5925 63.7457 18.7785C63.8396 19.4979 64.048 20.222 64.1741 20.9484C64.1862 20.9998 64.188 21.0039 64.199 21.0509C64.2363 21.1774 64.3017 21.3636 64.3498 21.5558L64.3881 21.6638C64.4952 22.0669 64.7284 22.6577 64.8759 23.0583C65.3019 23.949 66.5693 25.3248 67.7091 25.4112C67.8282 25.4202 67.8493 25.421 67.9991 25.4322C68.1778 25.4372 68.2179 25.4372 68.3575 25.4322C68.91 25.3749 69.1447 25.3863 69.7768 25.2007C69.8341 25.1709 70.311 24.9974 70.4124 24.9593C70.9962 24.7048 71.4927 23.9113 71.5657 23.6063C71.6968 23.0583 71.1802 21.7288 70.8622 21.0733C70.6019 20.5368 70.2748 20.0761 70.0297 19.7245C69.8957 19.5402 69.6024 19.3017 69.4534 19.1037C69.2728 18.8405 69.2587 18.665 69.3053 18.5995C69.6378 18.1092 69.9268 17.937 70.3568 17.5443L70.3628 17.5539L70.3708 17.5668C71.1142 18.7644 72.6844 21.6816 72.5783 23.3079L72.5784 23.3192C72.5784 24.0241 72.3113 25.1181 71.6968 25.7304C71.3129 26.1832 70.1814 26.7451 69.615 26.9266C69.299 27.0279 68.939 27.1376 68.6381 27.1806C68.0735 27.2952 67.2578 27.2772 66.6597 27.1564L66.4176 27.0763L66.2013 26.9817C65.8663 26.8186 65.4136 26.561 65.1579 26.2907C65.076 26.1923 65.0015 26.1075 64.9151 26.0132C64.3707 25.3519 63.9269 24.2003 63.6972 23.3705C63.6232 23.0583 63.5992 22.8483 63.5803 22.737C63.5803 22.737 63.5482 22.5132 63.5381 22.473C63.5209 22.2477 63.5192 21.9632 63.3861 21.7815C63.1608 22.5906 62.9026 22.9616 62.4843 23.534Z" fill="#15100B" fill-opacity="0.976471"/>
<path d="M4.23695 34.5526C6.50318 33.1417 8.57728 32.6551 11.1529 32.1623C11.2885 32.161 11.7109 32.0834 11.8741 32.0605C12.3081 32.001 12.7429 31.9477 13.1785 31.9009C14.2467 31.7863 15.2675 31.8062 16.3337 31.8472C16.9501 31.8877 17.9288 31.9238 18.5699 32.0306C19.5223 32.1436 19.8154 32.1985 20.6794 32.3893C21.1607 32.4605 21.5039 32.5159 21.9341 32.6203C22.4563 32.7469 23.6176 33.035 24.0721 33.1686C24.3334 33.2237 24.4378 33.2609 24.8064 33.3758C25.6385 33.681 27.0228 34.3844 27.5721 34.6315C27.915 34.7858 28.2283 34.9937 28.5811 35.1251L28.8946 35.2295C28.8569 35.218 29.2928 35.3764 29.4765 35.4584C30.1935 35.7784 30.9149 35.9349 31.6586 36.187C31.9433 36.2866 32.364 36.4506 32.6069 36.5198C32.6678 36.5308 32.7375 36.5942 32.8157 36.609C32.8942 36.558 33.1048 36.3501 33.1613 36.3114C33.2736 36.2192 33.3443 36.1729 33.5286 36.0463C33.452 36.0301 33.3457 36.0079 33.2105 35.9618C32.9996 35.8899 32.8598 35.8127 32.5683 35.7132C32.0975 35.5369 31.9935 35.5103 31.6161 35.3588C31.1594 35.207 31.0108 35.1365 30.8733 35.0972C30.7462 35.042 30.7219 35.0299 30.5622 34.9617C30.2208 34.833 29.3069 34.517 29.0433 34.4389C28.7761 34.36 28.537 34.2057 28.2037 34.0871C27.8705 33.9686 26.6041 33.2116 25.0672 32.7036C24.0297 32.3893 23.6532 32.2901 22.6269 32.0444C22.3829 31.9953 22.2589 31.9815 22.0127 31.9295C21.8066 31.8859 21.7719 31.8719 21.5039 31.8132C20.9205 31.6856 20.7454 31.6682 20.1857 31.5787C19.8612 31.5269 19.5977 31.4817 19.2699 31.4218C18.7592 31.3285 18.4154 31.2683 17.7945 31.1789C17.4129 31.1239 16.9461 31.0923 16.5085 31.0811C16.1314 31.0714 15.9364 31.0613 15.6104 31.0613C15.3643 31.0613 15.2501 31.0741 15.0399 31.0811C14.3832 31.1031 13.9724 31.1093 13.3218 31.1878C12.9616 31.1878 11.2713 31.4218 10.7978 31.5325C9.14598 31.7931 5.43932 33.0636 3.97875 33.9294C3.62706 34.1634 3.30238 34.3402 2.9674 34.6033C-0.981965 37.2383 -0.504609 41.7764 3.60841 43.845C4.49758 44.2924 4.87837 44.5996 5.93335 44.7984C9.50841 45.7183 13.088 45.2669 16.6247 44.4167C17.0077 44.3245 17.4004 44.2774 17.7818 44.18C19.198 43.8172 20.569 43.3324 21.9334 42.8118C22.6858 42.5244 23.3837 42.2796 24.2618 41.9259C24.4314 41.8576 24.5845 41.7836 24.7712 41.6861C25.0972 41.5468 25.2389 41.4733 25.5436 41.3463C25.9916 41.1595 27.1869 40.6246 27.5585 40.442C27.8569 40.2953 28.0952 40.1871 28.2609 40.107L28.4335 40.037C28.6345 39.9511 28.7063 39.9244 28.9105 39.8118C29.0078 39.766 29.0284 39.7576 29.1586 39.6839C29.6642 39.3977 30.6007 38.8751 31.2188 38.5227C31.5247 38.3482 32.0436 38.0528 32.3776 37.8567C32.7321 37.6484 33.0536 37.4614 33.3825 37.2687C33.5447 37.1652 33.6116 37.1184 33.781 37.0077C33.871 36.9559 33.9784 36.8932 34.0933 36.8251C33.7649 36.7413 33.1887 36.6792 32.8157 36.609C32.2705 36.9627 31.3134 37.5219 30.8622 37.7685C30.6617 37.8657 30.541 37.9515 30.3816 38.0369C30.28 38.1052 30.0125 38.2268 28.6345 39.0015C28.1853 39.2032 28.0305 39.2761 27.7376 39.4092L27.7035 39.4242C27.4783 39.5428 27.1361 39.7173 26.9352 39.8143C26.5676 39.9826 25.4317 40.5256 24.9594 40.7671C24.5442 40.9455 23.8201 41.2371 23.4538 41.3894C22.3044 41.8126 20.8772 42.4447 19.7382 42.7766C18.3642 43.1772 16.576 43.7158 15.1906 43.9495C13.862 44.1738 11.2462 44.5746 9.99084 44.5348C9.72814 44.5348 8.65005 44.4471 8.39238 44.4294C6.4156 44.2946 4.74428 43.7617 3.05948 42.7118C2.0714 42.0964 1.17513 40.8305 0.922217 39.6898C0.708311 38.7254 1.02642 37.735 1.58237 36.9262C2.34124 35.8212 3.13106 35.2407 4.23695 34.5526Z" fill="#15100B" fill-opacity="0.976471"/>
<path d="M34.8372 36.3667C34.5378 36.2685 33.9428 36.1337 33.5286 36.0463C33.3443 36.1729 33.2736 36.2192 33.1613 36.3114C33.1048 36.3501 32.8942 36.558 32.8157 36.609C33.1887 36.6792 33.7649 36.7413 34.0933 36.8251C34.3392 36.6794 34.6195 36.5089 34.8372 36.3667Z" fill="#15100B" fill-opacity="0.976471"/>
<path d="M48.1934 42.1026C48.0457 42.0386 47.8943 42.0006 47.7107 41.9206L46.8208 41.5962C46.1028 41.3418 44.646 40.8134 44.0003 40.4942C43.5282 40.3131 42.7855 39.9979 42.3359 39.7833L42.2439 39.7405C41.8595 39.5725 40.5129 39.0075 40.2277 38.8312C39.9394 38.7404 39.6142 38.531 39.2933 38.4015L39.169 38.3538C38.9362 38.2225 38.3271 37.9717 38.0485 37.8443C37.7603 37.672 37.2415 37.4397 36.9343 37.307C36.817 37.2321 36.7328 37.1893 36.6085 37.1263C36.3718 37.0033 35.2135 36.5004 34.9768 36.4202C34.9444 36.4042 34.8966 36.3862 34.8372 36.3667C34.6195 36.5089 34.3392 36.6794 34.0933 36.8251C34.1736 36.8456 34.2417 36.8647 34.2923 36.8817C34.8137 37.1633 37.4058 38.3225 37.998 38.5634L38.0635 38.5954C38.1737 38.6621 38.3452 38.7377 38.4787 38.8114C38.5299 38.8396 38.7053 38.9427 38.7494 38.9502C40.4349 39.7797 42.2751 40.5608 44.0232 41.2506C44.0972 41.2801 44.1074 41.2779 44.1775 41.322C44.702 41.5887 45.219 41.7227 45.7427 41.9206L46.6386 42.3142C46.7236 42.3415 46.7403 42.3477 46.9135 42.4164L46.998 42.4473C47.3284 42.5491 48.7952 43.0866 49.1921 43.2301C49.4055 43.3072 49.6652 43.39 50.1977 43.5579C50.49 43.65 50.9159 43.7618 51.7715 43.9724C52.8135 44.2289 53.3253 44.4476 54.3042 44.6825C55.7157 45.136 56.9154 45.4921 58.4435 45.8892C58.8522 46.0109 59.0644 46.0609 59.4015 46.1049C60.6093 46.2769 60.703 46.3043 61.9074 46.1418C64.1242 45.7861 64.6103 45.3293 66.2763 43.5976C66.4449 43.3718 66.5608 43.2341 66.6247 43.1538C66.9097 42.7954 67.6221 41.9946 67.3647 41.5926L67.2717 41.5534C67.1831 41.6059 67.1267 41.6958 67.087 41.7875C66.8465 42.1966 66.7016 42.3228 66.3435 42.7294C65.2397 43.9824 63.4162 45.4423 61.0179 45.5547C60.9462 45.5581 60.7269 45.5177 60.3008 45.4921C59.4015 45.438 59.0683 45.2756 58.1001 45.0099C57.549 44.8882 57.3123 44.8063 56.4412 44.5725C55.9692 44.4458 55.5701 44.3288 55.1586 44.2182C54.5738 44.061 54.2275 43.9208 53.7678 43.8194C53.0605 43.6635 52.5212 43.4878 51.8279 43.2786C51.4323 43.1592 50.9872 43.0123 50.752 42.9639C50.3517 42.8329 50.3297 42.8332 49.9719 42.706C49.6082 42.5768 49.602 42.5829 48.932 42.3491C48.5788 42.2453 48.4287 42.1877 48.1934 42.1026Z" fill="#15100B" fill-opacity="0.976471"/>
<path d="M58.9953 32.0147C59.7165 31.6749 60.4102 31.3513 61.1371 31.0168C61.8313 30.7013 62.4774 30.2936 63.1769 29.9881C63.5289 29.7649 63.6104 29.5368 63.9346 29.5716C63.9977 29.8205 63.5582 30.6409 63.4004 30.7191C62.8349 31.0168 61.9449 31.5052 61.4006 31.7788C61.3235 31.8176 60.9444 32.0222 60.8977 32.0393L60.419 32.2677L60.3933 32.2809C60.1901 32.3858 60.0181 32.4365 59.8104 32.5344C59.5412 32.6613 59.4472 32.686 59.1368 32.8297C58.3686 33.1854 57.6758 33.4149 56.8144 33.947C56.514 34.1326 56.1718 34.565 55.999 34.6368C55.5529 34.2018 56.6971 33.0816 57.1833 32.8314C57.3025 32.7612 57.3169 32.7502 57.4443 32.686C57.5578 32.6288 58.1768 32.3422 58.287 32.3025C58.6205 32.1614 58.6761 32.1408 58.9953 32.0147Z" fill="#15100B" fill-opacity="0.976471"/>
<path d="M60.6593 8.63474C60.5544 8.80898 60.4292 9.09293 60.2264 9.12753C60.0008 9.04885 58.3457 8.18242 58.2584 8.05037C58.0905 7.79732 58.9553 6.32241 59.2404 6.09493C59.4829 6.08986 60.4252 6.67066 60.7038 6.82943C60.9531 6.97563 61.0661 7.0997 61.258 7.31045L61.2706 7.32433C61.2248 7.58152 60.9323 8.12231 60.6593 8.63474Z" fill="#15100B" fill-opacity="0.976471"/>
<path d="M37.2388 9.21339C37.7337 8.77091 38.2129 8.65136 38.86 8.6701H39.3177C39.8993 8.68533 40.0351 8.70465 40.5865 8.82542C40.8862 8.90801 40.9128 9.01199 40.8704 9.22044L40.7333 9.6133C40.6821 9.73418 40.5979 9.87367 40.5067 10.0186C40.0669 10.7177 39.6538 11.4096 38.8666 11.7624C38.5012 11.9651 37.1053 12.6225 36.7465 12.3861C36.6918 12.0344 37.3431 11.8033 37.6091 11.6657C38.2699 11.3238 39.4687 10.8413 39.4735 10.2124L39.2549 10.1801C38.8005 10.1224 37.2388 10.2175 37.0881 10.4401C36.9572 10.6804 36.7924 11.0812 36.538 11.0416C36.5033 11.0272 36.4892 11.0093 36.4794 10.95C36.445 10.5003 36.5984 10.3106 36.7624 9.89959C36.8478 9.72898 36.9255 9.57366 37.0467 9.42053L37.1388 9.31503C37.1809 9.26394 37.2018 9.24554 37.2388 9.21339Z" fill="#15100B" fill-opacity="0.976471"/>
<path d="M43.8852 20.663C43.2271 20.3345 43.1712 20.2499 42.8177 19.6879C42.6656 19.446 42.5219 19.2199 42.3593 18.9851C42.2206 19.2876 42.1119 19.507 42.0049 19.8168C41.8445 20.2811 41.785 20.458 41.7241 20.9435C42.7225 22.2845 43.8465 24.619 43.6481 26.3521C43.4542 28.0429 40.5504 30.7161 39.3338 31.8525C38.8847 32.2725 38.1168 32.8823 37.6288 33.2503L37.5089 33.3457C37.2799 33.5229 37.13 33.638 36.9422 33.7786C36.5058 34.1083 36.0637 34.431 35.6159 34.7452C35.444 34.8638 34.7298 35.3544 34.5598 35.4606C34.4329 35.54 34.1226 35.71 33.8211 35.8899C33.6961 35.9645 33.6309 35.976 33.5286 36.0463C33.9428 36.1337 34.5378 36.2685 34.8372 36.3667C35.0153 36.2136 35.084 36.177 35.2051 36.0812C36.0288 35.5496 37.2423 34.6865 37.9642 34.0954C38.3704 33.7628 38.8926 33.3004 39.2823 32.9575C39.7155 32.6057 40.1369 32.2619 40.5415 31.8622C42.4668 29.9627 44.2467 28.0708 44.4525 25.2263C44.4882 24.7281 44.4596 24.2491 44.4049 23.7543C44.3736 23.4689 44.3097 23.0978 44.3243 22.8233C44.5852 22.9332 45.4721 22.9143 45.945 22.9143C46.3691 22.9143 46.3099 22.884 46.6968 22.842C47.0837 22.8001 48.1214 22.5336 48.5422 22.3924C49.1693 22.158 50.1205 21.6316 50.5735 21.3973C51.0134 21.1699 51.1064 21.1032 51.2787 20.9754C51.5899 20.7904 52.1521 20.2183 52.4327 20.0057C53.4358 19.2455 53.9393 17.7605 53.1137 15.9891C53.0365 15.8848 52.9885 15.7306 52.9413 15.6061C52.8215 15.3113 52.6875 15.0125 52.5261 14.7382C52.6901 14.6788 52.7677 14.6488 52.8431 14.4878C52.8628 14.4313 52.8661 14.4429 52.7386 14.244C52.6513 14.0812 52.0789 13.4153 51.8089 12.9064C51.7193 12.7375 51.6718 12.6425 51.5798 12.5157C51.4193 12.3356 51.1978 12.8128 51.0866 13.0348C50.9275 13.3878 50.7129 13.8011 50.6577 14.3259C50.6315 14.5752 50.6511 14.7789 50.6511 15.0151C50.6511 15.1207 50.6511 15.3512 50.6947 15.4016C50.8305 15.4212 50.9962 15.2519 51.1064 15.1577C51.1448 15.1188 51.1705 15.1021 51.1866 15.1692L51.236 15.2959C51.2944 15.4353 51.4251 15.7999 51.4956 15.9723C51.7565 16.3947 51.8509 16.7194 52.0519 17.161C52.196 17.4374 52.6213 18.4294 52.4424 18.6133C51.1337 19.9571 48.9801 20.7807 47.1465 21.0899C46.8243 21.1442 46.6968 21.1538 46.4131 21.1665C46.3042 21.1714 46.03 21.2036 45.9211 21.207C45.6156 21.2164 45.4864 21.2152 45.0938 21.1032C44.7013 20.9912 44.1626 20.8014 43.8852 20.663Z" fill="#15100B" fill-opacity="0.976471"/>
<path d="M59.9076 26.0559L59.9784 25.9971C60.0573 25.9171 60.2741 25.772 60.448 25.6119C60.9962 25.1076 61.3065 24.8216 61.8085 24.346C61.9372 24.2162 62.2858 23.8057 62.4843 23.534C62.9026 22.9616 63.1608 22.5906 63.3861 21.7815C63.5192 21.9632 63.5209 22.2477 63.5381 22.473C63.5482 22.5132 63.5803 22.737 63.5803 22.737C63.5992 22.8483 63.6232 23.0583 63.6972 23.3705C63.9269 24.2003 64.3707 25.3519 64.9151 26.0132C65.0015 26.1075 65.076 26.1923 65.1579 26.2907C65.4136 26.561 65.8663 26.8186 66.2013 26.9817L66.4176 27.0763L66.6597 27.1564C67.2578 27.2772 68.0735 27.2952 68.6381 27.1806C68.939 27.1376 69.299 27.0279 69.615 26.9266C70.1814 26.7451 71.3129 26.1832 71.6968 25.7304C72.3113 25.1181 72.5784 24.0241 72.5784 23.3192M52.328 24.1698L52.3196 24.209C52.2504 24.6373 52.2028 25.1379 52.2028 25.6367C52.2244 25.9039 52.2215 26.133 52.2492 26.3195C52.3196 26.7934 52.4108 27.0264 52.5073 27.2445C53.0812 28.5457 54.5389 28.7473 55.7629 28.3975C55.8687 28.3673 56.2224 28.2955 56.4397 28.1915C56.6082 28.111 56.7463 28.0496 56.8631 27.9983C57.1664 27.8653 57.1539 27.8912 57.4615 27.7447L57.685 27.6422C58.1061 27.3675 58.5265 27.133 58.8201 26.919C59.2103 26.6348 59.5417 26.3596 59.9076 26.0559C59.931 26.0364 59.9547 26.0168 59.9784 25.9971M72.5784 23.3192C72.5784 23.3155 72.5783 23.3117 72.5783 23.3079M70.3708 17.5668C71.1142 18.7644 72.6844 21.6816 72.5783 23.3079L72.5784 23.3192M61.258 7.31045L61.2706 7.32433C61.2248 7.58152 60.9323 8.12231 60.6593 8.63474C60.5544 8.80898 60.4292 9.09293 60.2264 9.12753C60.0008 9.04885 58.3457 8.18242 58.2584 8.05037C58.0905 7.79732 58.9553 6.32241 59.2404 6.09493C59.4829 6.08986 60.4252 6.67066 60.7038 6.82943C60.9531 6.97563 61.0661 7.0997 61.258 7.31045ZM61.2706 7.32433C61.2664 7.31966 61.2622 7.31503 61.258 7.31045M60.3933 32.2809C60.4018 32.2766 60.4104 32.2721 60.419 32.2677L60.8977 32.0393C60.9444 32.0222 61.3235 31.8176 61.4006 31.7788C61.9449 31.5052 62.8349 31.0168 63.4004 30.7191C63.5582 30.6409 63.9977 29.8205 63.9346 29.5716C63.6104 29.5368 63.5289 29.7649 63.1769 29.9881C62.4774 30.2936 61.8313 30.7013 61.1371 31.0168C60.4102 31.3513 59.7165 31.6749 58.9953 32.0147C58.6761 32.1408 58.6205 32.1614 58.287 32.3025C58.1768 32.3422 57.5578 32.6288 57.4443 32.686C57.3169 32.7502 57.3025 32.7612 57.1833 32.8314C56.6971 33.0816 55.5529 34.2018 55.999 34.6368C56.1718 34.565 56.514 34.1326 56.8144 33.947C57.6758 33.4149 58.3686 33.1854 59.1368 32.8297C59.4472 32.686 59.5412 32.6613 59.8104 32.5344C60.0181 32.4365 60.1901 32.3858 60.3933 32.2809ZM60.419 32.2677L60.3933 32.2809M70.3628 17.5539C70.3608 17.5507 70.3588 17.5475 70.3568 17.5443C69.9268 17.937 69.6378 18.1092 69.3053 18.5995C69.2587 18.665 69.2728 18.8405 69.4534 19.1037C69.6024 19.3017 69.8957 19.5402 70.0297 19.7245C70.2748 20.0761 70.6019 20.5368 70.8622 21.0733C71.1802 21.7288 71.6968 23.0583 71.5657 23.6063C71.4927 23.9113 70.9962 24.7048 70.4124 24.9593C70.311 24.9974 69.8341 25.1709 69.7768 25.2007C69.1447 25.3863 68.91 25.3749 68.3575 25.4322C68.2179 25.4372 68.1778 25.4372 67.9991 25.4322C67.8493 25.421 67.8282 25.4202 67.7091 25.4112C66.5693 25.3248 65.3019 23.949 64.8759 23.0583C64.7284 22.6577 64.4952 22.0669 64.3881 21.6638L64.3498 21.5558C64.3017 21.3636 64.2363 21.1774 64.199 21.0509C64.188 21.0039 64.1862 20.9998 64.1741 20.9484C64.048 20.222 63.8396 19.4979 63.7457 18.7785C63.7298 18.5925 63.5117 17.4835 63.4654 17.317C63.3419 16.5973 63.2668 16.1659 63.1013 15.5173C63.0775 15.424 62.8993 14.879 62.9024 14.8437C62.7776 14.4388 62.7275 14.244 62.4547 13.5568C62.255 13.0539 62.0241 12.465 61.8879 11.9464C61.8574 11.8835 61.8178 11.7603 61.7927 11.6899L61.7274 11.5896C61.2392 12.0771 61.1369 12.8151 60.9741 13.311C60.9376 13.4671 61.5189 15.2902 61.6066 15.6119L61.6185 15.6646C62.0236 17.3823 63.1554 20.6248 62.7708 21.6637C62.5378 22.1635 62.4522 22.242 61.9469 22.737C61.7339 22.9457 61.7097 22.9961 61.5124 23.1833C61.315 23.3705 61.1765 23.4845 60.9962 23.6611L60.8278 23.8057C60.4338 24.1121 59.9057 24.5903 59.4984 24.8625C58.3313 25.6426 56.3002 26.9047 54.8708 26.7656C54.6685 26.7459 54.4576 26.7044 54.2524 26.6558C53.8905 26.57 53.4452 26.367 53.2739 26.0737C53.1795 25.8926 53.0466 25.643 52.9821 25.4284C52.9353 25.2175 52.8883 25.0358 52.8608 24.591C52.8591 24.0733 52.9585 23.5978 53.0605 23.1315C53.1518 22.7146 53.544 21.74 53.3981 21.4323L53.3241 21.4497C53.0257 21.7803 52.7767 22.5293 52.655 22.9616C52.5542 23.3197 52.4024 23.8253 52.328 24.1698C52.3251 24.1832 52.3223 24.1963 52.3196 24.209M70.3568 17.5443L70.3628 17.5539M70.3708 17.5668L70.3628 17.5539M70.3708 17.5668C70.3681 17.5625 70.3655 17.5582 70.3628 17.5539M33.5286 36.0463C33.6309 35.976 33.6961 35.9645 33.8211 35.8899C34.1226 35.71 34.4329 35.54 34.5598 35.4606C34.7298 35.3544 35.444 34.8638 35.6159 34.7452C36.0637 34.431 36.5058 34.1083 36.9422 33.7786C37.13 33.638 37.2799 33.5229 37.5089 33.3457L37.6288 33.2503C38.1168 32.8823 38.8847 32.2725 39.3338 31.8525C40.5504 30.7161 43.4542 28.0429 43.6481 26.3521C43.8465 24.619 42.7225 22.2845 41.7241 20.9435C41.785 20.458 41.8445 20.2811 42.0049 19.8168C42.1119 19.507 42.2206 19.2876 42.3593 18.9851C42.5219 19.2199 42.6656 19.446 42.8177 19.6879C43.1712 20.2499 43.2271 20.3345 43.8852 20.663C44.1626 20.8014 44.7013 20.9912 45.0938 21.1032C45.4864 21.2152 45.6156 21.2164 45.9211 21.207C46.03 21.2036 46.3042 21.1714 46.4131 21.1665C46.6968 21.1538 46.8243 21.1442 47.1465 21.0899C48.9801 20.7807 51.1337 19.9571 52.4424 18.6133C52.6213 18.4294 52.196 17.4374 52.0519 17.161C51.8509 16.7194 51.7565 16.3947 51.4956 15.9723C51.4251 15.7999 51.2944 15.4353 51.236 15.2959L51.1866 15.1692C51.1705 15.1021 51.1448 15.1188 51.1064 15.1577C50.9962 15.2519 50.8305 15.4212 50.6947 15.4016C50.6511 15.3512 50.6511 15.1207 50.6511 15.0151C50.6511 14.7789 50.6315 14.5752 50.6577 14.3259C50.7129 13.8011 50.9275 13.3878 51.0866 13.0348C51.1978 12.8128 51.4193 12.3356 51.5798 12.5157C51.6718 12.6425 51.7193 12.7375 51.8089 12.9064C52.0789 13.4153 52.6513 14.0812 52.7386 14.244C52.8661 14.4429 52.8628 14.4313 52.8431 14.4878C52.7677 14.6488 52.6901 14.6788 52.5261 14.7382C52.6875 15.0125 52.8215 15.3113 52.9413 15.6061C52.9885 15.7306 53.0365 15.8848 53.1137 15.9891C53.9393 17.7605 53.4358 19.2455 52.4327 20.0057C52.1521 20.2183 51.5899 20.7904 51.2787 20.9754C51.1064 21.1032 51.0134 21.1699 50.5735 21.3973C50.1205 21.6316 49.1693 22.158 48.5422 22.3924C48.1214 22.5336 47.0837 22.8001 46.6968 22.842C46.3099 22.884 46.3691 22.9143 45.945 22.9143C45.4721 22.9143 44.5852 22.9332 44.3243 22.8233C44.3097 23.0978 44.3736 23.4689 44.4049 23.7543C44.4596 24.2491 44.4882 24.7281 44.4525 25.2263C44.2467 28.0708 42.4668 29.9627 40.5415 31.8622C40.1369 32.2619 39.7155 32.6057 39.2823 32.9575C38.8926 33.3004 38.3704 33.7628 37.9642 34.0954C37.2423 34.6865 36.0288 35.5496 35.2051 36.0812C35.084 36.177 35.0153 36.2136 34.8372 36.3667M33.5286 36.0463C33.9428 36.1337 34.5378 36.2685 34.8372 36.3667M33.5286 36.0463C33.3443 36.1729 33.2736 36.2192 33.1613 36.3114C33.1048 36.3501 32.8942 36.558 32.8157 36.609M33.5286 36.0463C33.452 36.0301 33.3457 36.0079 33.2105 35.9618C32.9996 35.8899 32.8598 35.8127 32.5683 35.7132C32.0975 35.5369 31.9935 35.5103 31.6161 35.3588C31.1594 35.207 31.0108 35.1365 30.8733 35.0972C30.7462 35.042 30.7219 35.0299 30.5622 34.9617C30.2208 34.833 29.3069 34.517 29.0433 34.4389C28.7761 34.36 28.537 34.2057 28.2037 34.0871C27.8705 33.9686 26.6041 33.2116 25.0672 32.7036C24.0297 32.3893 23.6532 32.2901 22.6269 32.0444C22.3829 31.9953 22.2589 31.9815 22.0127 31.9295C21.8066 31.8859 21.7719 31.8719 21.5039 31.8132C20.9205 31.6856 20.7454 31.6682 20.1857 31.5787C19.8612 31.5269 19.5977 31.4817 19.2699 31.4218C18.7592 31.3285 18.4154 31.2683 17.7945 31.1789C17.4129 31.1239 16.9461 31.0923 16.5085 31.0811C16.1314 31.0714 15.9364 31.0613 15.6104 31.0613C15.3643 31.0613 15.2501 31.0741 15.0399 31.0811C14.3832 31.1031 13.9724 31.1093 13.3218 31.1878C12.9616 31.1878 11.2713 31.4218 10.7978 31.5325C9.14598 31.7931 5.43932 33.0636 3.97875 33.9294C3.62706 34.1634 3.30238 34.3402 2.9674 34.6033C-0.981965 37.2383 -0.504609 41.7764 3.60841 43.845C4.49758 44.2924 4.87837 44.5996 5.93335 44.7984C9.50841 45.7183 13.088 45.2669 16.6247 44.4167C17.0077 44.3245 17.4004 44.2774 17.7818 44.18C19.198 43.8172 20.569 43.3324 21.9334 42.8118C22.6858 42.5244 23.3837 42.2796 24.2618 41.9259C24.4314 41.8576 24.5845 41.7836 24.7712 41.6861C25.0972 41.5468 25.2389 41.4733 25.5436 41.3463C25.9916 41.1595 27.1869 40.6246 27.5585 40.442C27.8569 40.2953 28.0952 40.1871 28.2609 40.107L28.4335 40.037C28.6345 39.9511 28.7063 39.9244 28.9105 39.8118C29.0078 39.766 29.0284 39.7576 29.1586 39.6839C29.6642 39.3977 30.6007 38.8751 31.2188 38.5227C31.5247 38.3482 32.0436 38.0528 32.3776 37.8567C32.7321 37.6484 33.0536 37.4614 33.3825 37.2687C33.5447 37.1652 33.6116 37.1184 33.781 37.0077C33.871 36.9559 33.9784 36.8932 34.0933 36.8251M34.8372 36.3667C34.6195 36.5089 34.3392 36.6794 34.0933 36.8251M32.8157 36.609C32.7375 36.5942 32.6678 36.5308 32.6069 36.5198C32.364 36.4506 31.9433 36.2866 31.6586 36.187C30.9149 35.9349 30.1935 35.7784 29.4765 35.4584C29.2928 35.3764 28.8569 35.218 28.8946 35.2295L28.5811 35.1251C28.2283 34.9937 27.915 34.7858 27.5721 34.6315C27.0228 34.3844 25.6385 33.681 24.8064 33.3758C24.4378 33.2609 24.3334 33.2237 24.0721 33.1686C23.6176 33.035 22.4563 32.7469 21.9341 32.6203C21.5039 32.5159 21.1607 32.4605 20.6794 32.3893C19.8154 32.1985 19.5223 32.1436 18.5699 32.0306C17.9288 31.9238 16.9501 31.8877 16.3337 31.8472C15.2675 31.8062 14.2467 31.7863 13.1785 31.9009C12.7429 31.9477 12.3081 32.001 11.8741 32.0605C11.7109 32.0834 11.2885 32.161 11.1529 32.1623C8.57728 32.6551 6.50318 33.1417 4.23695 34.5526C3.13106 35.2407 2.34124 35.8212 1.58237 36.9262C1.02642 37.735 0.708311 38.7254 0.922217 39.6898C1.17513 40.8305 2.0714 42.0964 3.05948 42.7118C4.74428 43.7617 6.4156 44.2946 8.39238 44.4294C8.65005 44.4471 9.72814 44.5348 9.99084 44.5348C11.2462 44.5746 13.862 44.1738 15.1906 43.9495C16.576 43.7158 18.3642 43.1772 19.7382 42.7766C20.8772 42.4447 22.3044 41.8126 23.4538 41.3894C23.8201 41.2371 24.5442 40.9455 24.9594 40.7671C25.4317 40.5256 26.5676 39.9826 26.9352 39.8143C27.1361 39.7173 27.4783 39.5428 27.7035 39.4242L27.7376 39.4092C28.0305 39.2761 28.1853 39.2032 28.6345 39.0015C30.0125 38.2268 30.28 38.1052 30.3816 38.0369C30.541 37.9515 30.6617 37.8657 30.8622 37.7685C31.3134 37.5219 32.2705 36.9627 32.8157 36.609ZM32.8157 36.609C33.1887 36.6792 33.7649 36.7413 34.0933 36.8251M37.2388 9.21339C37.7337 8.77091 38.2129 8.65136 38.86 8.6701H39.3177C39.8993 8.68533 40.0351 8.70465 40.5865 8.82542C40.8862 8.90801 40.9128 9.01199 40.8704 9.22044L40.7333 9.6133C40.6821 9.73418 40.5979 9.87367 40.5067 10.0186C40.0669 10.7177 39.6538 11.4096 38.8666 11.7624C38.5012 11.9651 37.1053 12.6225 36.7465 12.3861C36.6918 12.0344 37.3431 11.8033 37.6091 11.6657C38.2699 11.3238 39.4687 10.8413 39.4735 10.2124L39.2549 10.1801C38.8005 10.1224 37.2388 10.2175 37.0881 10.4401C36.9572 10.6804 36.7924 11.0812 36.538 11.0416C36.5033 11.0272 36.4892 11.0093 36.4794 10.95C36.445 10.5003 36.5984 10.3106 36.7624 9.89959C36.8478 9.72898 36.9255 9.57366 37.0467 9.42053L37.1388 9.31503C37.1809 9.26394 37.2018 9.24554 37.2388 9.21339ZM68.4257 9.96045C68.7439 10.1712 69.0511 10.335 69.3883 10.5657C70.8389 11.3514 70.8393 11.3288 69.9997 12.7898C69.9596 12.8594 69.9038 12.926 69.8543 12.9905C69.7583 13.1155 69.7563 13.1135 69.7233 13.1556C69.3658 13.2443 69.0635 12.9451 68.7774 12.7501C68.3402 12.4519 67.9139 12.168 67.4569 11.9C67.5697 11.3513 68.0528 10.3695 68.4257 9.96045ZM48.4897 32.8597C48.8762 33.0757 49.6374 33.665 50.0306 33.9427C50.1646 34.0762 50.4454 34.398 50.6398 34.294C51.0338 34.0837 51.3723 33.2564 51.6068 32.854C51.6068 32.8392 51.6525 32.7803 51.7586 32.5829C51.4786 32.3883 51.4151 32.304 51.2082 32.1776C50.8869 31.9189 50.1743 31.4021 49.8041 31.2438C49.4616 31.0133 49.0904 30.6872 48.7903 31.2046C48.5814 31.5656 48.3764 32.2633 48.0899 32.5494C47.7417 32.7127 47.7463 32.7652 47.5292 32.9038C47.3512 32.8121 46.9852 32.6145 46.8769 32.5516C46.8716 32.5472 46.8659 32.5432 46.8601 32.5393C46.4827 32.3238 46.286 32.2073 45.8821 31.9363C45.3758 31.5966 45.2139 31.3515 44.8277 31.9729C44.6295 32.292 44.5497 32.4004 44.3689 32.7429C44.2535 32.9788 44.1774 33.1031 44.1798 33.3454C44.2741 33.4085 44.3604 33.4632 44.5442 33.5589C44.7516 33.683 44.8503 33.7475 44.9694 33.8502C45.2744 34.075 45.5411 34.2299 45.9491 34.4593L46.2515 34.6257C46.418 34.7388 46.5805 34.8355 46.8055 34.9534C47.1496 34.8858 47.706 33.3335 48.2464 32.8231C48.2807 32.7909 48.4244 32.8429 48.4897 32.8597ZM71.7619 1.11354C72.0607 0.943265 73.1666 0.223661 73.4205 0.25068C73.5871 0.474989 73.29 0.953931 73.1172 1.12715C72.665 1.71056 71.776 2.09954 71.1108 2.40897C70.5546 2.70552 69.9961 2.99766 69.435 3.28531C68.8682 3.56665 68.0159 3.98377 67.4701 4.26784C67.0454 4.48884 66.4268 4.82595 65.9565 5.10848C64.7829 5.65349 65.1494 5.87388 64.8761 5.76246C64.8536 5.6799 64.855 5.63119 64.8796 5.54978C65.1609 4.63276 65.6316 4.29089 66.4008 3.84134C66.5793 3.73437 66.9348 3.56499 67.4106 3.33181C67.945 3.05715 68.9546 2.5237 69.2543 2.36454C69.3433 2.28136 71.4308 1.28381 71.7619 1.11354Z" stroke="#15100B" stroke-width="0.5"/>
</svg>
